<svg width="70" height="34" viewBox="0 0 70 34" fill="none" xmlns="http://www.w3.org/2000/svg">
<g id="Group 15">
<path id="Vector" d="M25.4854 5.27911L14.5884 0.760833C14.1632 0.574787 13.6582 0.893723 13.6582 1.37213V10.9668C13.6582 11.4452 14.1366 11.7642 14.5884 11.5781L25.512 7.05984C26.2828 6.7409 26.2828 5.62462 25.512 5.30568L25.4854 5.27911Z" fill="#40B250"/>
<path id="Vector_2" d="M44.5419 28.721L55.4655 33.2392C55.8908 33.4253 56.3958 33.1064 56.3958 32.6279V23.0333C56.3958 22.5549 55.9174 22.2359 55.4655 22.422L44.5419 26.9402C43.7712 27.2592 43.7712 28.3755 44.5419 28.6944V28.721Z" fill="#40B250"/>
<path id="Vector_3" d="M56.0233 27.9769C62.0831 27.9769 67 23.06 67 17.0002C67 10.9404 63.3057 6.02344 56.0233 6.02344C50.6545 6.02344 39.9967 13.545 35 17.0002C30.0033 20.4553 19.3721 27.9769 13.9767 27.9769C6.69435 27.9769 3 23.06 3 17.0002C3 10.9404 7.94352 6.02344 14.0033 6.02344" stroke="#40B250" stroke-width="5" stroke-miterlimit="10"/>
</g>
</svg>
