<svg width="80" height="120" viewBox="0 0 80 120" fill="none" xmlns="http://www.w3.org/2000/svg">
<rect width="80" height="120" fill="#F2F3F7"/>
<rect x="0.5" y="0.5" width="79" height="119" stroke="black" stroke-opacity="0.2"/>
<path d="M23.0251 55.8331V51.3636H24.5166V59H23.055V57.6776H22.9754C22.7997 58.0852 22.518 58.425 22.1302 58.6967C21.7458 58.9652 21.2668 59.0994 20.6934 59.0994C20.2029 59.0994 19.7687 58.9917 19.3909 58.7763C19.0164 58.5575 18.7214 58.2344 18.5059 57.8068C18.2938 57.3793 18.1878 56.8506 18.1878 56.2209V51.3636H19.6743V56.0419C19.6743 56.5623 19.8184 56.9766 20.1068 57.2848C20.3952 57.593 20.7697 57.7472 21.2304 57.7472C21.5088 57.7472 21.7855 57.6776 22.0606 57.5384C22.339 57.3991 22.5694 57.1887 22.7517 56.907C22.9373 56.6252 23.0284 56.2673 23.0251 55.8331ZM26.5139 61.8636V51.3636H27.9656V52.6016H28.0899C28.1761 52.4425 28.3004 52.2585 28.4628 52.0497C28.6252 51.8409 28.8506 51.6586 29.1389 51.5028C29.4273 51.3438 29.8084 51.2642 30.2824 51.2642C30.8989 51.2642 31.4491 51.42 31.933 51.7315C32.4169 52.0431 32.7964 52.4922 33.0715 53.0788C33.3499 53.6655 33.4891 54.3714 33.4891 55.1967C33.4891 56.022 33.3515 56.7296 33.0764 57.3196C32.8013 57.9062 32.4235 58.3587 31.9429 58.6768C31.4623 58.9917 30.9138 59.1491 30.2973 59.1491C29.8333 59.1491 29.4538 59.0713 29.1588 58.9155C28.8672 58.7597 28.6385 58.5774 28.4727 58.3686C28.307 58.1598 28.1794 57.9742 28.0899 57.8118H28.0004V61.8636H26.5139ZM27.9706 55.1818C27.9706 55.7187 28.0485 56.1894 28.2043 56.5938C28.3601 56.9981 28.5854 57.3146 28.8804 57.5433C29.1754 57.7687 29.5367 57.8814 29.9642 57.8814C30.4084 57.8814 30.7796 57.7637 31.0779 57.5284C31.3762 57.2898 31.6015 56.9666 31.754 56.5589C31.9098 56.1513 31.9877 55.6922 31.9877 55.1818C31.9877 54.678 31.9114 54.2256 31.759 53.8246C31.6098 53.4235 31.3844 53.107 31.0828 52.875C30.7845 52.643 30.4117 52.527 29.9642 52.527C29.5334 52.527 29.1688 52.638 28.8705 52.8601C28.5755 53.0821 28.3518 53.392 28.1993 53.7898C28.0468 54.1875 27.9706 54.6515 27.9706 55.1818ZM36.6411 48.8182V59H35.1546V48.8182H36.6411ZM41.8575 59.1541C41.1416 59.1541 40.5168 58.9901 39.9832 58.6619C39.4496 58.3338 39.0353 57.8748 38.7403 57.2848C38.4453 56.6948 38.2979 56.0054 38.2979 55.2166C38.2979 54.4245 38.4453 53.7318 38.7403 53.1385C39.0353 52.5452 39.4496 52.0845 39.9832 51.7564C40.5168 51.4283 41.1416 51.2642 41.8575 51.2642C42.5734 51.2642 43.1982 51.4283 43.7318 51.7564C44.2654 52.0845 44.6797 52.5452 44.9747 53.1385C45.2697 53.7318 45.4172 54.4245 45.4172 55.2166C45.4172 56.0054 45.2697 56.6948 44.9747 57.2848C44.6797 57.8748 44.2654 58.3338 43.7318 58.6619C43.1982 58.9901 42.5734 59.1541 41.8575 59.1541ZM41.8625 57.9062C42.3265 57.9062 42.711 57.7836 43.0159 57.5384C43.3208 57.2931 43.5462 56.9666 43.692 56.5589C43.8412 56.1513 43.9157 55.7022 43.9157 55.2116C43.9157 54.7244 43.8412 54.277 43.692 53.8693C43.5462 53.4583 43.3208 53.1286 43.0159 52.88C42.711 52.6314 42.3265 52.5071 41.8625 52.5071C41.3952 52.5071 41.0074 52.6314 40.6991 52.88C40.3942 53.1286 40.1672 53.4583 40.018 53.8693C39.8722 54.277 39.7993 54.7244 39.7993 55.2116C39.7993 55.7022 39.8722 56.1513 40.018 56.5589C40.1672 56.9666 40.3942 57.2931 40.6991 57.5384C41.0074 57.7836 41.3952 57.9062 41.8625 57.9062ZM49.2987 59.169C48.8148 59.169 48.3773 59.0795 47.9862 58.9006C47.5951 58.7183 47.2852 58.4548 47.0566 58.1101C46.8312 57.7654 46.7185 57.3428 46.7185 56.8423C46.7185 56.4115 46.8013 56.0568 46.9671 55.7784C47.1328 55.5 47.3565 55.2796 47.6382 55.1172C47.92 54.9548 48.2348 54.8321 48.5828 54.7493C48.9308 54.6664 49.2855 54.6035 49.6468 54.5604C50.1041 54.5073 50.4753 54.4643 50.7604 54.4311C51.0454 54.3946 51.2526 54.3366 51.3818 54.2571C51.5111 54.1776 51.5757 54.0483 51.5757 53.8693V53.8345C51.5757 53.4003 51.4531 53.0639 51.2078 52.8253C50.9659 52.5866 50.6046 52.4673 50.124 52.4673C49.6235 52.4673 49.2291 52.5784 48.9408 52.8004C48.6557 53.0192 48.4585 53.2628 48.3492 53.5312L46.9521 53.2131C47.1179 52.7491 47.3598 52.3745 47.678 52.0895C47.9995 51.8011 48.3691 51.5923 48.7867 51.4631C49.2043 51.3305 49.6434 51.2642 50.1041 51.2642C50.4091 51.2642 50.7322 51.3007 51.0736 51.3736C51.4183 51.4432 51.7398 51.5724 52.0381 51.7614C52.3397 51.9503 52.5866 52.2204 52.7789 52.5717C52.9711 52.9197 53.0672 53.3722 53.0672 53.929V59H51.6155V57.956H51.5558C51.4597 58.1482 51.3155 58.3371 51.1233 58.5227C50.9311 58.7083 50.6842 58.8625 50.3825 58.9851C50.0809 59.1077 49.7197 59.169 49.2987 59.169ZM49.6219 57.9759C50.0329 57.9759 50.3842 57.8946 50.6759 57.7322C50.9709 57.5698 51.1946 57.3577 51.347 57.0959C51.5028 56.8307 51.5807 56.5473 51.5807 56.2457V55.2614C51.5277 55.3144 51.4249 55.3641 51.2725 55.4105C51.1233 55.4536 50.9526 55.4917 50.7604 55.5249C50.5682 55.5547 50.3809 55.5829 50.1986 55.6094C50.0163 55.6326 49.8638 55.6525 49.7412 55.669C49.4529 55.7055 49.1894 55.7668 48.9507 55.853C48.7154 55.9392 48.5265 56.0634 48.384 56.2259C48.2448 56.3849 48.1752 56.5971 48.1752 56.8622C48.1752 57.2301 48.311 57.5085 48.5828 57.6974C48.8546 57.883 49.201 57.9759 49.6219 57.9759ZM57.9058 59.1491C57.2893 59.1491 56.7391 58.9917 56.2552 58.6768C55.7747 58.3587 55.3968 57.9062 55.1217 57.3196C54.8499 56.7296 54.714 56.022 54.714 55.1967C54.714 54.3714 54.8516 53.6655 55.1267 53.0788C55.4051 52.4922 55.7863 52.0431 56.2702 51.7315C56.7541 51.42 57.3026 51.2642 57.9157 51.2642C58.3897 51.2642 58.7709 51.3438 59.0592 51.5028C59.3509 51.6586 59.5763 51.8409 59.7354 52.0497C59.8978 52.2585 60.0237 52.4425 60.1132 52.6016H60.2027V48.8182H61.6892V59H60.2375V57.8118H60.1132C60.0237 57.9742 59.8944 58.1598 59.7254 58.3686C59.5597 58.5774 59.331 58.7597 59.0393 58.9155C58.7477 59.0713 58.3698 59.1491 57.9058 59.1491ZM58.2339 57.8814C58.6615 57.8814 59.0228 57.7687 59.3177 57.5433C59.616 57.3146 59.8414 56.9981 59.9939 56.5938C60.1497 56.1894 60.2275 55.7187 60.2275 55.1818C60.2275 54.6515 60.1513 54.1875 59.9988 53.7898C59.8464 53.392 59.6227 53.0821 59.3277 52.8601C59.0327 52.638 58.6681 52.527 58.2339 52.527C57.7865 52.527 57.4136 52.643 57.1153 52.875C56.817 53.107 56.5916 53.4235 56.4392 53.8246C56.29 54.2256 56.2155 54.678 56.2155 55.1818C56.2155 55.6922 56.2917 56.1513 56.4442 56.5589C56.5966 56.9666 56.822 57.2898 57.1203 57.5284C57.4219 57.7637 57.7931 57.8814 58.2339 57.8814ZM20.6555 80V72.3636H22.142V80H20.6555ZM21.4062 71.1854C21.1477 71.1854 20.9257 71.0992 20.7401 70.9268C20.5578 70.7512 20.4666 70.5424 20.4666 70.3004C20.4666 70.0552 20.5578 69.8464 20.7401 69.674C20.9257 69.4983 21.1477 69.4105 21.4062 69.4105C21.6648 69.4105 21.8852 69.4983 22.0675 69.674C22.2531 69.8464 22.3459 70.0552 22.3459 70.3004C22.3459 70.5424 22.2531 70.7512 22.0675 70.9268C21.8852 71.0992 21.6648 71.1854 21.4062 71.1854ZM24.1419 80V72.3636H25.5687V73.6065H25.6632C25.8223 73.1856 26.0824 72.8575 26.4437 72.6222C26.805 72.3835 27.2375 72.2642 27.7413 72.2642C28.2517 72.2642 28.6793 72.3835 29.024 72.6222C29.372 72.8608 29.6288 73.1889 29.7946 73.6065H29.8741C30.0564 73.1989 30.3464 72.8741 30.7441 72.6321C31.1419 72.3868 31.6158 72.2642 32.166 72.2642C32.8587 72.2642 33.4238 72.4813 33.8613 72.9155C34.3021 73.3497 34.5225 74.0043 34.5225 74.8793V80H33.036V75.0185C33.036 74.5014 32.8952 74.1269 32.6135 73.8949C32.3317 73.6629 31.9953 73.5469 31.6042 73.5469C31.1203 73.5469 30.7441 73.696 30.4757 73.9943C30.2072 74.2893 30.073 74.6688 30.073 75.1328V80H28.5914V74.924C28.5914 74.5097 28.4622 74.1766 28.2037 73.9247C27.9451 73.6728 27.6087 73.5469 27.1944 73.5469C26.9127 73.5469 26.6525 73.6214 26.4139 73.7706C26.1786 73.9164 25.988 74.1203 25.8422 74.3821C25.6996 74.6439 25.6284 74.9472 25.6284 75.2919V80H24.1419ZM38.7372 80.169C38.2533 80.169 37.8158 80.0795 37.4247 79.9006C37.0336 79.7183 36.7237 79.4548 36.495 79.1101C36.2696 78.7654 36.157 78.3428 36.157 77.8423C36.157 77.4115 36.2398 77.0568 36.4055 76.7784C36.5713 76.5 36.795 76.2796 37.0767 76.1172C37.3584 75.9548 37.6733 75.8321 38.0213 75.7493C38.3693 75.6664 38.724 75.6035 39.0852 75.5604C39.5426 75.5073 39.9138 75.4643 40.1989 75.4311C40.4839 75.3946 40.6911 75.3366 40.8203 75.2571C40.9496 75.1776 41.0142 75.0483 41.0142 74.8693V74.8345C41.0142 74.4003 40.8916 74.0639 40.6463 73.8253C40.4044 73.5866 40.0431 73.4673 39.5625 73.4673C39.062 73.4673 38.6676 73.5784 38.3793 73.8004C38.0942 74.0192 37.897 74.2628 37.7876 74.5312L36.3906 74.2131C36.5563 73.7491 36.7983 73.3745 37.1165 73.0895C37.438 72.8011 37.8075 72.5923 38.2251 72.4631C38.6428 72.3305 39.0819 72.2642 39.5426 72.2642C39.8475 72.2642 40.1707 72.3007 40.5121 72.3736C40.8568 72.4432 41.1783 72.5724 41.4766 72.7614C41.7782 72.9503 42.0251 73.2204 42.2173 73.5717C42.4096 73.9197 42.5057 74.3722 42.5057 74.929V80H41.054V78.956H40.9943C40.8982 79.1482 40.754 79.3371 40.5618 79.5227C40.3696 79.7083 40.1226 79.8625 39.821 79.9851C39.5194 80.1077 39.1581 80.169 38.7372 80.169ZM39.0604 78.9759C39.4714 78.9759 39.8227 78.8946 40.1143 78.7322C40.4093 78.5698 40.633 78.3577 40.7855 78.0959C40.9413 77.8307 41.0192 77.5473 41.0192 77.2457V76.2614C40.9661 76.3144 40.8634 76.3641 40.7109 76.4105C40.5618 76.4536 40.3911 76.4917 40.1989 76.5249C40.0066 76.5547 39.8194 76.5829 39.6371 76.6094C39.4548 76.6326 39.3023 76.6525 39.1797 76.669C38.8913 76.7055 38.6278 76.7668 38.3892 76.853C38.1539 76.9392 37.965 77.0634 37.8224 77.2259C37.6832 77.3849 37.6136 77.5971 37.6136 77.8622C37.6136 78.2301 37.7495 78.5085 38.0213 78.6974C38.2931 78.883 38.6394 78.9759 39.0604 78.9759ZM47.6873 83.0227C47.0808 83.0227 46.5588 82.9432 46.1213 82.7841C45.6871 82.625 45.3324 82.4145 45.0574 82.1527C44.7823 81.8909 44.5768 81.6042 44.4409 81.2926L45.7186 80.7656C45.8081 80.9115 45.9274 81.0656 46.0765 81.228C46.229 81.3937 46.4345 81.5346 46.693 81.6506C46.9548 81.7666 47.2913 81.8246 47.7022 81.8246C48.2657 81.8246 48.7314 81.687 49.0993 81.4119C49.4672 81.1402 49.6511 80.706 49.6511 80.1094V78.608H49.5566C49.4672 78.7704 49.3379 78.951 49.1689 79.1499C49.0031 79.3487 48.7744 79.5211 48.4828 79.6669C48.1911 79.8127 47.8116 79.8857 47.3443 79.8857C46.7411 79.8857 46.1975 79.7448 45.7136 79.4631C45.233 79.178 44.8519 78.7588 44.5701 78.2053C44.2917 77.6484 44.1525 76.964 44.1525 76.152C44.1525 75.34 44.2901 74.6439 44.5652 74.0639C44.8436 73.4839 45.2247 73.0398 45.7086 72.7315C46.1925 72.42 46.7411 72.2642 47.3542 72.2642C47.8282 72.2642 48.211 72.3438 48.5027 72.5028C48.7943 72.6586 49.0214 72.8409 49.1838 73.0497C49.3495 73.2585 49.4771 73.4425 49.5666 73.6016H49.676V72.3636H51.1326V80.169C51.1326 80.8253 50.9802 81.3639 50.6752 81.7848C50.3703 82.2057 49.9577 82.5173 49.4373 82.7195C48.9203 82.9216 48.3369 83.0227 47.6873 83.0227ZM47.6724 78.6527C48.1 78.6527 48.4612 78.5533 48.7562 78.3544C49.0545 78.1522 49.2799 77.8639 49.4324 77.4893C49.5881 77.1115 49.666 76.6591 49.666 76.1321C49.666 75.6184 49.5898 75.166 49.4373 74.7749C49.2849 74.3838 49.0611 74.0788 48.7662 73.8601C48.4712 73.638 48.1066 73.527 47.6724 73.527C47.225 73.527 46.8521 73.643 46.5538 73.875C46.2555 74.1037 46.0301 74.4152 45.8777 74.8097C45.7285 75.2041 45.6539 75.6449 45.6539 76.1321C45.6539 76.6326 45.7302 77.0717 45.8826 77.4496C46.0351 77.8274 46.2605 78.1224 46.5588 78.3345C46.8604 78.5466 47.2316 78.6527 47.6724 78.6527ZM56.4174 80.1541C55.6651 80.1541 55.0171 79.9934 54.4735 79.6719C53.9333 79.3471 53.5157 78.8913 53.2207 78.3047C52.929 77.7147 52.7832 77.0237 52.7832 76.2315C52.7832 75.4493 52.929 74.7599 53.2207 74.1634C53.5157 73.5668 53.9267 73.1011 54.4537 72.7663C54.984 72.4316 55.6038 72.2642 56.313 72.2642C56.7439 72.2642 57.1615 72.3355 57.5659 72.478C57.9702 72.6205 58.3332 72.8442 58.6547 73.1491C58.9761 73.4541 59.2297 73.8501 59.4153 74.3374C59.6009 74.8213 59.6937 75.4096 59.6937 76.1023V76.6293H53.6234V75.5156H58.237C58.237 75.1245 58.1575 74.7782 57.9984 74.4766C57.8393 74.1716 57.6156 73.9313 57.3272 73.7557C57.0422 73.58 56.7074 73.4922 56.323 73.4922C55.9054 73.4922 55.5408 73.5949 55.2292 73.8004C54.921 74.0026 54.6824 74.2678 54.5133 74.5959C54.3476 74.9207 54.2647 75.2737 54.2647 75.6548V76.5249C54.2647 77.0353 54.3542 77.4695 54.5332 77.8274C54.7155 78.1854 54.969 78.4588 55.2939 78.6477C55.6187 78.8333 55.9982 78.9261 56.4324 78.9261C56.7141 78.9261 56.9709 78.8864 57.2029 78.8068C57.435 78.724 57.6355 78.6013 57.8045 78.4389C57.9735 78.2765 58.1028 78.076 58.1923 77.8374L59.5993 78.0909C59.4866 78.5052 59.2844 78.8681 58.9927 79.1797C58.7044 79.4879 58.3414 79.7282 57.9039 79.9006C57.4698 80.0696 56.9743 80.1541 56.4174 80.1541Z" fill="#6E7A9F"/>
</svg>
