<svg width="360" height="238" viewBox="0 0 360 238" fill="none" xmlns="http://www.w3.org/2000/svg">
<g filter="url(#filter0_d_174_14436)">
<path d="M40 30C40 18.9543 48.9543 10 60 10H117C128.046 10 137 18.9543 137 30V31C137 42.0457 128.046 51 117 51H44C41.7909 51 40 49.2091 40 47V30Z" fill="#AFEEB8" shape-rendering="crispEdges"/>
<path d="M57.1186 36V25.8182H58.6548V30.2429H63.7308V25.8182H65.272V36H63.7308V31.5604H58.6548V36H57.1186ZM70.6811 36.1541C69.9287 36.1541 69.2808 35.9934 68.7372 35.6719C68.197 35.3471 67.7794 34.8913 67.4844 34.3047C67.1927 33.7147 67.0469 33.0237 67.0469 32.2315C67.0469 31.4493 67.1927 30.7599 67.4844 30.1634C67.7794 29.5668 68.1903 29.1011 68.7173 28.7663C69.2476 28.4316 69.8674 28.2642 70.5767 28.2642C71.0076 28.2642 71.4252 28.3355 71.8295 28.478C72.2339 28.6205 72.5968 28.8442 72.9183 29.1491C73.2398 29.4541 73.4934 29.8501 73.679 30.3374C73.8646 30.8213 73.9574 31.4096 73.9574 32.1023V32.6293H67.8871V31.5156H72.5007C72.5007 31.1245 72.4212 30.7782 72.2621 30.4766C72.103 30.1716 71.8793 29.9313 71.5909 29.7557C71.3059 29.58 70.9711 29.4922 70.5866 29.4922C70.169 29.4922 69.8045 29.5949 69.4929 29.8004C69.1847 30.0026 68.946 30.2678 68.777 30.5959C68.6113 30.9207 68.5284 31.2737 68.5284 31.6548V32.5249C68.5284 33.0353 68.6179 33.4695 68.7969 33.8274C68.9792 34.1854 69.2327 34.4588 69.5575 34.6477C69.8823 34.8333 70.2618 34.9261 70.696 34.9261C70.9777 34.9261 71.2346 34.8864 71.4666 34.8068C71.6986 34.724 71.8991 34.6013 72.0682 34.4389C72.2372 34.2765 72.3665 34.076 72.456 33.8374L73.8629 34.0909C73.7502 34.5052 73.5481 34.8681 73.2564 35.1797C72.968 35.4879 72.6051 35.7282 72.1676 35.9006C71.7334 36.0696 71.2379 36.1541 70.6811 36.1541ZM77.0932 25.8182V36H75.6067V25.8182H77.0932ZM80.5795 25.8182V36H79.093V25.8182H80.5795ZM85.796 36.1541C85.0801 36.1541 84.4553 35.9901 83.9217 35.6619C83.3881 35.3338 82.9738 34.8748 82.6788 34.2848C82.3838 33.6948 82.2363 33.0054 82.2363 32.2166C82.2363 31.4245 82.3838 30.7318 82.6788 30.1385C82.9738 29.5452 83.3881 29.0845 83.9217 28.7564C84.4553 28.4283 85.0801 28.2642 85.796 28.2642C86.5119 28.2642 87.1367 28.4283 87.6703 28.7564C88.2039 29.0845 88.6182 29.5452 88.9132 30.1385C89.2082 30.7318 89.3556 31.4245 89.3556 32.2166C89.3556 33.0054 89.2082 33.6948 88.9132 34.2848C88.6182 34.8748 88.2039 35.3338 87.6703 35.6619C87.1367 35.9901 86.5119 36.1541 85.796 36.1541ZM85.801 34.9062C86.265 34.9062 86.6494 34.7836 86.9544 34.5384C87.2593 34.2931 87.4847 33.9666 87.6305 33.5589C87.7797 33.1513 87.8542 32.7022 87.8542 32.2116C87.8542 31.7244 87.7797 31.277 87.6305 30.8693C87.4847 30.4583 87.2593 30.1286 86.9544 29.88C86.6494 29.6314 86.265 29.5071 85.801 29.5071C85.3336 29.5071 84.9458 29.6314 84.6376 29.88C84.3327 30.1286 84.1056 30.4583 83.9565 30.8693C83.8107 31.277 83.7377 31.7244 83.7377 32.2116C83.7377 32.7022 83.8107 33.1513 83.9565 33.5589C84.1056 33.9666 84.3327 34.2931 84.6376 34.5384C84.9458 34.7836 85.3336 34.9062 85.801 34.9062Z" fill="#0C0E12"/>
<g clip-path="url(#clip0_174_14436)">
<path d="M103.701 25.5817C104.223 25.2167 105.01 25.2867 105.479 25.6739L104.941 24.8922C104.508 24.275 104.663 23.6072 105.281 23.1739C105.899 22.7422 107.65 23.9028 107.65 23.9028C107.213 23.2794 107.295 22.4894 107.918 22.0522C108.218 21.8428 108.588 21.761 108.948 21.8246C109.308 21.8882 109.628 22.0922 109.838 22.3917L115.627 30.5694L114.889 37.7222L108.732 35.4767L103.361 27.5139C103.256 27.3648 103.182 27.1965 103.143 27.0186C103.103 26.8408 103.099 26.6569 103.13 26.4774C103.162 26.2979 103.228 26.1264 103.326 25.9727C103.424 25.819 103.551 25.6862 103.701 25.5817Z" fill="#EF9645"/>
<path d="M102.497 30.1311C102.497 30.1311 101.869 29.2145 102.786 28.5861C103.702 27.9578 104.33 28.8739 104.33 28.8739L107.247 33.1284C107.348 32.9606 107.458 32.795 107.581 32.6317L103.532 26.7278C103.532 26.7278 102.904 25.8117 103.82 25.1834C104.736 24.555 105.365 25.4711 105.365 25.4711L109.173 31.025C109.315 30.9095 109.46 30.7934 109.609 30.6795L105.194 24.24C105.194 24.24 104.566 23.3239 105.482 22.6956C106.399 22.0672 107.027 22.9834 107.027 22.9834L111.442 29.4217C111.604 29.3222 111.765 29.2361 111.926 29.145L107.799 23.1272C107.799 23.1272 107.171 22.2111 108.087 21.5828C109.003 20.9545 109.631 21.8706 109.631 21.8706L113.995 28.2339L114.658 29.2017C111.909 31.0872 111.647 34.6345 113.218 36.925C113.532 37.3834 113.99 37.0695 113.99 37.0695C112.105 34.32 112.681 31.2306 115.43 29.3456L114.62 25.2889C114.62 25.2889 114.317 24.22 115.385 23.9167C116.454 23.6139 116.757 24.6828 116.757 24.6828L117.694 27.4628C118.065 28.565 118.46 29.6634 118.982 30.7022C120.459 33.6356 119.577 37.2811 116.794 39.1906C113.757 41.2722 109.607 40.4984 107.525 37.4628L102.497 30.1311Z" fill="#FFDC5D"/>
<path d="M107.667 38.3011C105.445 38.3011 103.199 36.0555 103.199 33.8333C103.199 33.5261 102.974 33.2778 102.667 33.2778C102.36 33.2778 102.088 33.5261 102.088 33.8333C102.088 37.1667 104.333 39.4122 107.667 39.4122C107.974 39.4122 108.222 39.1405 108.222 38.8333C108.222 38.5261 107.974 38.3011 107.667 38.3011Z" fill="#5DADEC"/>
<path d="M104.889 39.3889C103.222 39.3889 102.111 38.2778 102.111 36.6111C102.111 36.4637 102.053 36.3224 101.948 36.2182C101.844 36.1141 101.703 36.0555 101.556 36.0555C101.408 36.0555 101.267 36.1141 101.163 36.2182C101.059 36.3224 101 36.4637 101 36.6111C101 38.8333 102.667 40.5 104.889 40.5C105.036 40.5 105.178 40.4414 105.282 40.3373C105.386 40.2331 105.444 40.0918 105.444 39.9444C105.444 39.7971 105.386 39.6558 105.282 39.5516C105.178 39.4474 105.036 39.3889 104.889 39.3889ZM114.333 21.6111C114.186 21.6111 114.045 21.6696 113.94 21.7738C113.836 21.878 113.778 22.0193 113.778 22.1666C113.778 22.314 113.836 22.4553 113.94 22.5595C114.045 22.6637 114.186 22.7222 114.333 22.7222C116.556 22.7222 118.778 24.7161 118.778 27.1666C118.778 27.314 118.836 27.4553 118.94 27.5595C119.045 27.6637 119.186 27.7222 119.333 27.7222C119.481 27.7222 119.622 27.6637 119.726 27.5595C119.83 27.4553 119.889 27.314 119.889 27.1666C119.889 24.1033 117.667 21.6111 114.333 21.6111Z" fill="#5DADEC"/>
<path d="M117.111 20.5233C116.805 20.5233 116.556 20.7489 116.556 21.0555C116.556 21.3622 116.805 21.6344 117.111 21.6344C118.778 21.6344 119.866 22.8705 119.866 24.3889C119.866 24.6955 120.137 24.9444 120.445 24.9444C120.752 24.9444 120.977 24.6955 120.977 24.3889C120.977 22.2572 119.333 20.5233 117.111 20.5233Z" fill="#5DADEC"/>
</g>
</g>
<g filter="url(#filter1_d_174_14436)">
<path d="M40 81C40 69.9543 48.9543 61 60 61H295C306.046 61 315 69.9543 315 81V103C315 114.046 306.046 123 295 123H44C41.7909 123 40 121.209 40 119V81Z" fill="#AFEEB8" shape-rendering="crispEdges"/>
<path d="M56.8849 87V76.8182H60.9616C61.7107 76.8182 62.3355 76.9292 62.8359 77.1513C63.3364 77.3733 63.7126 77.6816 63.9645 78.076C64.2164 78.4671 64.3423 78.9179 64.3423 79.4283C64.3423 79.826 64.2628 80.1757 64.1037 80.4773C63.9446 80.7756 63.7259 81.0208 63.4474 81.2131C63.1723 81.402 62.8575 81.5362 62.5028 81.6158V81.7152C62.8906 81.7318 63.2536 81.8411 63.5916 82.0433C63.933 82.2455 64.2098 82.5289 64.4219 82.8935C64.634 83.2547 64.7401 83.6856 64.7401 84.1861C64.7401 84.7263 64.6058 85.2086 64.3374 85.6328C64.0722 86.0537 63.6795 86.3868 63.1591 86.6321C62.6387 86.8774 61.9974 87 61.2351 87H56.8849ZM59.0376 85.2401H60.7926C61.3925 85.2401 61.83 85.1257 62.1051 84.897C62.3802 84.665 62.5178 84.3568 62.5178 83.9723C62.5178 83.6906 62.4498 83.442 62.3139 83.2266C62.178 83.0111 61.9841 82.8421 61.7322 82.7195C61.4837 82.5968 61.187 82.5355 60.8423 82.5355H59.0376V85.2401ZM59.0376 81.0788H60.6335C60.9285 81.0788 61.1903 81.0275 61.419 80.9247C61.651 80.8187 61.8333 80.6695 61.9659 80.4773C62.1018 80.285 62.1697 80.0547 62.1697 79.7862C62.1697 79.4183 62.0388 79.1217 61.777 78.8963C61.5185 78.6709 61.1506 78.5582 60.6733 78.5582H59.0376V81.0788ZM69.5513 87.1491C68.7791 87.1491 68.1112 86.9851 67.5478 86.657C66.9876 86.3255 66.5551 85.8648 66.2502 85.2749C65.9453 84.6816 65.7928 83.9938 65.7928 83.2116C65.7928 82.4228 65.9453 81.7334 66.2502 81.1435C66.5551 80.5502 66.9876 80.0895 67.5478 79.7614C68.1112 79.4299 68.7791 79.2642 69.5513 79.2642C70.3236 79.2642 70.9898 79.4299 71.5499 79.7614C72.1133 80.0895 72.5475 80.5502 72.8525 81.1435C73.1574 81.7334 73.3098 82.4228 73.3098 83.2116C73.3098 83.9938 73.1574 84.6816 72.8525 85.2749C72.5475 85.8648 72.1133 86.3255 71.5499 86.657C70.9898 86.9851 70.3236 87.1491 69.5513 87.1491ZM69.5613 85.5085C69.9126 85.5085 70.2059 85.4091 70.4412 85.2102C70.6766 85.008 70.8539 84.733 70.9732 84.3849C71.0958 84.0369 71.1571 83.6409 71.1571 83.1967C71.1571 82.7526 71.0958 82.3565 70.9732 82.0085C70.8539 81.6605 70.6766 81.3854 70.4412 81.1832C70.2059 80.9811 69.9126 80.88 69.5613 80.88C69.2066 80.88 68.9083 80.9811 68.6664 81.1832C68.4277 81.3854 68.2471 81.6605 68.1245 82.0085C68.0051 82.3565 67.9455 82.7526 67.9455 83.1967C67.9455 83.6409 68.0051 84.0369 68.1245 84.3849C68.2471 84.733 68.4277 85.008 68.6664 85.2102C68.9083 85.4091 69.2066 85.5085 69.5613 85.5085ZM78.1373 87.1491C77.365 87.1491 76.6971 86.9851 76.1337 86.657C75.5736 86.3255 75.141 85.8648 74.8361 85.2749C74.5312 84.6816 74.3787 83.9938 74.3787 83.2116C74.3787 82.4228 74.5312 81.7334 74.8361 81.1435C75.141 80.5502 75.5736 80.0895 76.1337 79.7614C76.6971 79.4299 77.365 79.2642 78.1373 79.2642C78.9095 79.2642 79.5757 79.4299 80.1358 79.7614C80.6993 80.0895 81.1335 80.5502 81.4384 81.1435C81.7433 81.7334 81.8958 82.4228 81.8958 83.2116C81.8958 83.9938 81.7433 84.6816 81.4384 85.2749C81.1335 85.8648 80.6993 86.3255 80.1358 86.657C79.5757 86.9851 78.9095 87.1491 78.1373 87.1491ZM78.1472 85.5085C78.4985 85.5085 78.7918 85.4091 79.0272 85.2102C79.2625 85.008 79.4398 84.733 79.5591 84.3849C79.6818 84.0369 79.7431 83.6409 79.7431 83.1967C79.7431 82.7526 79.6818 82.3565 79.5591 82.0085C79.4398 81.6605 79.2625 81.3854 79.0272 81.1832C78.7918 80.9811 78.4985 80.88 78.1472 80.88C77.7926 80.88 77.4943 80.9811 77.2523 81.1832C77.0137 81.3854 76.833 81.6605 76.7104 82.0085C76.5911 82.3565 76.5314 82.7526 76.5314 83.1967C76.5314 83.6409 76.5911 84.0369 76.7104 84.3849C76.833 84.733 77.0137 85.008 77.2523 85.2102C77.4943 85.4091 77.7926 85.5085 78.1472 85.5085ZM85.1919 84.8026L85.1969 82.2621H85.5051L87.9512 79.3636H90.3823L87.0961 83.2017H86.5939L85.1919 84.8026ZM83.2729 87V76.8182H85.3908V87H83.2729ZM88.0456 87L85.7985 83.674L87.2104 82.1776L90.5265 87H88.0456ZM96.9846 79.7464C96.9448 79.3454 96.7741 79.0339 96.4725 78.8118C96.1709 78.5897 95.7615 78.4787 95.2445 78.4787C94.8932 78.4787 94.5965 78.5284 94.3546 78.6278C94.1126 78.724 93.927 78.8582 93.7978 79.0305C93.6718 79.2029 93.6088 79.3984 93.6088 79.6172C93.6022 79.7995 93.6403 79.9586 93.7232 80.0945C93.8094 80.2304 93.927 80.348 94.0762 80.4474C94.2253 80.5436 94.3977 80.6281 94.5932 80.701C94.7888 80.7706 94.9976 80.8303 95.2196 80.88L96.1344 81.0987C96.5785 81.1982 96.9862 81.3307 97.3574 81.4964C97.7286 81.6622 98.0501 81.866 98.3219 82.108C98.5937 82.3499 98.8042 82.6349 98.9533 82.9631C99.1058 83.2912 99.1837 83.6674 99.187 84.0916C99.1837 84.7147 99.0246 85.255 98.7097 85.7124C98.3981 86.1664 97.9474 86.5194 97.3574 86.7713C96.7708 87.0199 96.0632 87.1442 95.2346 87.1442C94.4126 87.1442 93.6967 87.0182 93.0868 86.7663C92.4803 86.5144 92.0063 86.1416 91.665 85.6477C91.3269 85.1506 91.1496 84.5357 91.133 83.8033H93.2161C93.2393 84.1446 93.3371 84.4297 93.5094 84.6584C93.6851 84.8838 93.9187 85.0545 94.2104 85.1705C94.5054 85.2831 94.8385 85.3395 95.2097 85.3395C95.5743 85.3395 95.8908 85.2865 96.1593 85.1804C96.431 85.0743 96.6415 84.9268 96.7907 84.7379C96.9398 84.549 97.0144 84.3319 97.0144 84.0866C97.0144 83.858 96.9464 83.6657 96.8105 83.5099C96.678 83.3542 96.4824 83.2216 96.2239 83.1122C95.9687 83.0028 95.6555 82.9034 95.2843 82.8139L94.1756 82.5355C93.3172 82.3267 92.6394 82.0002 92.1422 81.5561C91.6451 81.112 91.3981 80.5137 91.4015 79.7614C91.3981 79.1449 91.5622 78.6063 91.8936 78.1456C92.2284 77.6849 92.6874 77.3253 93.2708 77.0668C93.8541 76.8082 94.517 76.679 95.2594 76.679C96.0151 76.679 96.6747 76.8082 97.2381 77.0668C97.8049 77.3253 98.2457 77.6849 98.5605 78.1456C98.8754 78.6063 99.0378 79.1399 99.0478 79.7464H96.9846ZM102.102 87L100.023 79.3636H102.166L103.349 84.4943H103.419L104.652 79.3636H106.755L108.008 84.4645H108.072L109.236 79.3636H111.374L109.3 87H107.058L105.746 82.1974H105.651L104.339 87H102.102ZM114.681 87.1442C114.194 87.1442 113.76 87.0597 113.378 86.8906C112.997 86.7183 112.696 86.4647 112.474 86.13C112.255 85.7919 112.145 85.371 112.145 84.8672C112.145 84.4429 112.223 84.0866 112.379 83.7983C112.535 83.5099 112.747 83.2779 113.015 83.1023C113.284 82.9266 113.589 82.794 113.93 82.7045C114.275 82.6151 114.636 82.5521 115.014 82.5156C115.458 82.4692 115.816 82.4261 116.088 82.3864C116.36 82.3433 116.557 82.2803 116.68 82.1974C116.802 82.1146 116.863 81.992 116.863 81.8295V81.7997C116.863 81.4848 116.764 81.2412 116.565 81.0689C116.37 80.8965 116.091 80.8104 115.73 80.8104C115.349 80.8104 115.046 80.8949 114.82 81.0639C114.595 81.2296 114.446 81.4384 114.373 81.6903L112.414 81.5312C112.513 81.0672 112.709 80.6662 113.001 80.3281C113.292 79.9867 113.668 79.7249 114.129 79.5426C114.593 79.357 115.13 79.2642 115.74 79.2642C116.164 79.2642 116.57 79.3139 116.958 79.4134C117.349 79.5128 117.695 79.6669 117.997 79.8757C118.302 80.0845 118.542 80.353 118.718 80.6811C118.894 81.0059 118.981 81.3954 118.981 81.8494V87H116.973V85.9411H116.913C116.791 86.1797 116.626 86.3902 116.421 86.5724C116.215 86.7514 115.969 86.8923 115.68 86.995C115.392 87.0945 115.059 87.1442 114.681 87.1442ZM115.287 85.6825C115.599 85.6825 115.874 85.6212 116.113 85.4986C116.351 85.3726 116.539 85.2036 116.675 84.9915C116.81 84.7794 116.878 84.5391 116.878 84.2706V83.4602C116.812 83.5033 116.721 83.5431 116.605 83.5795C116.492 83.6127 116.365 83.6442 116.222 83.674C116.08 83.7005 115.937 83.7254 115.795 83.7486C115.652 83.7685 115.523 83.7867 115.407 83.8033C115.158 83.8397 114.941 83.8977 114.756 83.9773C114.57 84.0568 114.426 84.1645 114.323 84.3004C114.22 84.433 114.169 84.5987 114.169 84.7976C114.169 85.0859 114.273 85.3063 114.482 85.4588C114.694 85.608 114.963 85.6825 115.287 85.6825ZM120.624 89.8636V79.3636H122.713V80.6463H122.807C122.9 80.4408 123.034 80.232 123.21 80.0199C123.389 79.8045 123.621 79.6255 123.906 79.483C124.194 79.3371 124.552 79.2642 124.98 79.2642C125.536 79.2642 126.05 79.41 126.521 79.7017C126.991 79.9901 127.368 80.4259 127.649 81.0092C127.931 81.5893 128.072 82.3168 128.072 83.1918C128.072 84.0436 127.934 84.7628 127.659 85.3494C127.387 85.9328 127.016 86.3752 126.546 86.6768C126.078 86.9751 125.555 87.1243 124.975 87.1243C124.564 87.1243 124.214 87.0563 123.926 86.9205C123.641 86.7846 123.407 86.6139 123.225 86.4084C123.042 86.1996 122.903 85.9891 122.807 85.777H122.742V89.8636H120.624ZM122.698 83.1818C122.698 83.6359 122.761 84.032 122.887 84.37C123.012 84.7081 123.195 84.9716 123.433 85.1605C123.672 85.3461 123.962 85.4389 124.303 85.4389C124.648 85.4389 124.94 85.3445 125.178 85.1555C125.417 84.9633 125.598 84.6982 125.72 84.3601C125.846 84.0187 125.909 83.6259 125.909 83.1818C125.909 82.741 125.848 82.3532 125.725 82.0185C125.603 81.6837 125.422 81.4219 125.183 81.233C124.945 81.044 124.651 80.9496 124.303 80.9496C123.959 80.9496 123.667 81.0407 123.428 81.223C123.193 81.4053 123.012 81.6638 122.887 81.9986C122.761 82.3333 122.698 82.7277 122.698 83.1818ZM133.343 87V79.3636H134.83V87H133.343ZM134.094 78.1854C133.835 78.1854 133.613 78.0992 133.428 77.9268C133.245 77.7512 133.154 77.5424 133.154 77.3004C133.154 77.0552 133.245 76.8464 133.428 76.674C133.613 76.4983 133.835 76.4105 134.094 76.4105C134.352 76.4105 134.573 76.4983 134.755 76.674C134.941 76.8464 135.033 77.0552 135.033 77.3004C135.033 77.5424 134.941 77.7512 134.755 77.9268C134.573 78.0992 134.352 78.1854 134.094 78.1854ZM142.552 81.228L141.204 81.4666C141.148 81.2943 141.059 81.1302 140.936 80.9744C140.817 80.8187 140.654 80.6911 140.449 80.5916C140.243 80.4922 139.986 80.4425 139.678 80.4425C139.257 80.4425 138.906 80.5369 138.624 80.7259C138.342 80.9115 138.202 81.1518 138.202 81.4467C138.202 81.7019 138.296 81.9074 138.485 82.0632C138.674 82.219 138.979 82.3466 139.4 82.446L140.613 82.7244C141.315 82.8868 141.839 83.1371 142.184 83.4751C142.528 83.8132 142.701 84.2524 142.701 84.7926C142.701 85.25 142.568 85.6577 142.303 86.0156C142.041 86.3703 141.675 86.6487 141.204 86.8509C140.737 87.053 140.195 87.1541 139.579 87.1541C138.724 87.1541 138.026 86.9718 137.486 86.6072C136.945 86.2393 136.614 85.7173 136.491 85.0412L137.928 84.8224C138.018 85.197 138.202 85.4804 138.48 85.6726C138.758 85.8615 139.121 85.956 139.569 85.956C140.056 85.956 140.445 85.8549 140.737 85.6527C141.029 85.4472 141.175 85.197 141.175 84.902C141.175 84.6634 141.085 84.4628 140.906 84.3004C140.73 84.138 140.46 84.0154 140.096 83.9325L138.803 83.6491C138.09 83.4867 137.564 83.2282 137.222 82.8736C136.884 82.5189 136.715 82.0698 136.715 81.5263C136.715 81.0755 136.841 80.6811 137.093 80.343C137.345 80.005 137.693 79.7415 138.137 79.5526C138.581 79.3603 139.09 79.2642 139.663 79.2642C140.488 79.2642 141.138 79.4432 141.612 79.8011C142.086 80.1558 142.399 80.6314 142.552 81.228ZM148.16 87V76.8182H151.888C152.611 76.8182 153.209 76.9375 153.683 77.1761C154.157 77.4115 154.512 77.7313 154.747 78.1357C154.982 78.5367 155.1 78.9891 155.1 79.4929C155.1 79.9171 155.022 80.2751 154.866 80.5668C154.711 80.8551 154.502 81.0871 154.24 81.2628C153.981 81.4351 153.696 81.5611 153.385 81.6406V81.7401C153.723 81.7566 154.053 81.866 154.374 82.0682C154.699 82.267 154.967 82.5504 155.18 82.9183C155.392 83.2862 155.498 83.7337 155.498 84.2607C155.498 84.781 155.375 85.2483 155.13 85.6626C154.888 86.0736 154.513 86.4001 154.006 86.642C153.499 86.8807 152.851 87 152.062 87H148.16ZM149.696 85.6825H151.913C152.649 85.6825 153.176 85.54 153.494 85.255C153.812 84.9699 153.971 84.6136 153.971 84.1861C153.971 83.8646 153.89 83.5696 153.728 83.3011C153.565 83.0327 153.333 82.8189 153.032 82.6598C152.733 82.5007 152.379 82.4212 151.968 82.4212H149.696V85.6825ZM149.696 81.223H151.754C152.099 81.223 152.409 81.1567 152.684 81.0241C152.962 80.8916 153.183 80.706 153.345 80.4673C153.511 80.2254 153.594 79.9403 153.594 79.6122C153.594 79.1913 153.446 78.8383 153.151 78.5533C152.856 78.2682 152.404 78.1257 151.794 78.1257H149.696V81.223ZM160.417 87.1541C159.701 87.1541 159.076 86.9901 158.543 86.6619C158.009 86.3338 157.595 85.8748 157.3 85.2848C157.005 84.6948 156.857 84.0054 156.857 83.2166C156.857 82.4245 157.005 81.7318 157.3 81.1385C157.595 80.5452 158.009 80.0845 158.543 79.7564C159.076 79.4283 159.701 79.2642 160.417 79.2642C161.133 79.2642 161.758 79.4283 162.291 79.7564C162.825 80.0845 163.239 80.5452 163.534 81.1385C163.829 81.7318 163.977 82.4245 163.977 83.2166C163.977 84.0054 163.829 84.6948 163.534 85.2848C163.239 85.8748 162.825 86.3338 162.291 86.6619C161.758 86.9901 161.133 87.1541 160.417 87.1541ZM160.422 85.9062C160.886 85.9062 161.271 85.7836 161.575 85.5384C161.88 85.2931 162.106 84.9666 162.252 84.5589C162.401 84.1513 162.475 83.7022 162.475 83.2116C162.475 82.7244 162.401 82.277 162.252 81.8693C162.106 81.4583 161.88 81.1286 161.575 80.88C161.271 80.6314 160.886 80.5071 160.422 80.5071C159.955 80.5071 159.567 80.6314 159.259 80.88C158.954 81.1286 158.727 81.4583 158.578 81.8693C158.432 82.277 158.359 82.7244 158.359 83.2116C158.359 83.7022 158.432 84.1513 158.578 84.5589C158.727 84.9666 158.954 85.2931 159.259 85.5384C159.567 85.7836 159.955 85.9062 160.422 85.9062ZM168.853 87.1541C168.137 87.1541 167.512 86.9901 166.978 86.6619C166.445 86.3338 166.03 85.8748 165.735 85.2848C165.44 84.6948 165.293 84.0054 165.293 83.2166C165.293 82.4245 165.44 81.7318 165.735 81.1385C166.03 80.5452 166.445 80.0845 166.978 79.7564C167.512 79.4283 168.137 79.2642 168.853 79.2642C169.569 79.2642 170.193 79.4283 170.727 79.7564C171.261 80.0845 171.675 80.5452 171.97 81.1385C172.265 81.7318 172.412 82.4245 172.412 83.2166C172.412 84.0054 172.265 84.6948 171.97 85.2848C171.675 85.8748 171.261 86.3338 170.727 86.6619C170.193 86.9901 169.569 87.1541 168.853 87.1541ZM168.858 85.9062C169.322 85.9062 169.706 85.7836 170.011 85.5384C170.316 85.2931 170.541 84.9666 170.687 84.5589C170.836 84.1513 170.911 83.7022 170.911 83.2116C170.911 82.7244 170.836 82.277 170.687 81.8693C170.541 81.4583 170.316 81.1286 170.011 80.88C169.706 80.6314 169.322 80.5071 168.858 80.5071C168.39 80.5071 168.002 80.6314 167.694 80.88C167.389 81.1286 167.162 81.4583 167.013 81.8693C166.867 82.277 166.794 82.7244 166.794 83.2116C166.794 83.7022 166.867 84.1513 167.013 84.5589C167.162 84.9666 167.389 85.2931 167.694 85.5384C168.002 85.7836 168.39 85.9062 168.858 85.9062ZM175.439 84.4098L175.429 82.5952H175.687L178.73 79.3636H180.51L177.04 83.0426H176.806L175.439 84.4098ZM174.072 87V76.8182H175.558V87H174.072ZM178.894 87L176.16 83.3707L177.184 82.3317L180.719 87H178.894ZM185.844 82.0533V83.3409H181.33V82.0533H185.844ZM193.498 79.4929C193.445 79.0223 193.226 78.6577 192.842 78.3991C192.457 78.1373 191.973 78.0064 191.39 78.0064C190.972 78.0064 190.611 78.0727 190.306 78.2053C190.001 78.3345 189.764 78.5135 189.595 78.7422C189.43 78.9676 189.347 79.2244 189.347 79.5128C189.347 79.7547 189.403 79.9635 189.516 80.1392C189.632 80.3149 189.783 80.4624 189.968 80.5817C190.157 80.6977 190.359 80.7955 190.575 80.875C190.79 80.9512 190.997 81.0142 191.196 81.0639L192.191 81.3224C192.515 81.402 192.848 81.5097 193.19 81.6456C193.531 81.7815 193.848 81.9605 194.139 82.1825C194.431 82.4046 194.666 82.6797 194.845 83.0078C195.028 83.3359 195.119 83.7287 195.119 84.1861C195.119 84.7628 194.97 85.2749 194.671 85.7223C194.376 86.1697 193.947 86.5227 193.384 86.7812C192.824 87.0398 192.146 87.169 191.35 87.169C190.588 87.169 189.928 87.0481 189.372 86.8061C188.815 86.5642 188.379 86.2211 188.064 85.777C187.749 85.3295 187.575 84.7992 187.542 84.1861H189.083C189.113 84.554 189.232 84.8606 189.441 85.1058C189.653 85.3478 189.923 85.5284 190.252 85.6477C190.583 85.7637 190.946 85.8217 191.34 85.8217C191.775 85.8217 192.161 85.7538 192.499 85.6179C192.84 85.4787 193.109 85.2865 193.304 85.0412C193.5 84.7926 193.597 84.5026 193.597 84.1712C193.597 83.8696 193.511 83.6226 193.339 83.4304C193.17 83.2382 192.94 83.0791 192.648 82.9531C192.36 82.8272 192.033 82.7161 191.669 82.62L190.465 82.2919C189.65 82.0698 189.004 81.7434 188.526 81.3125C188.052 80.8816 187.816 80.3116 187.816 79.6023C187.816 79.0156 187.975 78.5036 188.293 78.0661C188.611 77.6286 189.042 77.2888 189.585 77.0469C190.129 76.8016 190.742 76.679 191.425 76.679C192.114 76.679 192.722 76.8 193.249 77.0419C193.78 77.2839 194.197 77.617 194.502 78.0412C194.807 78.4621 194.966 78.946 194.98 79.4929H193.498ZM198.322 82.4659V87H196.835V76.8182H198.302V80.6065H198.396C198.575 80.1955 198.849 79.8691 199.217 79.6271C199.585 79.3852 200.065 79.2642 200.658 79.2642C201.182 79.2642 201.639 79.3719 202.031 79.5874C202.425 79.8028 202.73 80.1243 202.945 80.5518C203.164 80.9761 203.273 81.5064 203.273 82.1428V87H201.787V82.3217C201.787 81.7616 201.643 81.3274 201.354 81.0192C201.066 80.7076 200.665 80.5518 200.151 80.5518C199.8 80.5518 199.485 80.6264 199.207 80.7756C198.932 80.9247 198.714 81.1435 198.555 81.4318C198.4 81.7169 198.322 82.0616 198.322 82.4659ZM207.479 87.169C206.996 87.169 206.558 87.0795 206.167 86.9006C205.776 86.7183 205.466 86.4548 205.237 86.1101C205.012 85.7654 204.899 85.3428 204.899 84.8423C204.899 84.4115 204.982 84.0568 205.148 83.7784C205.313 83.5 205.537 83.2796 205.819 83.1172C206.101 82.9548 206.415 82.8321 206.763 82.7493C207.112 82.6664 207.466 82.6035 207.827 82.5604C208.285 82.5073 208.656 82.4643 208.941 82.4311C209.226 82.3946 209.433 82.3366 209.562 82.2571C209.692 82.1776 209.756 82.0483 209.756 81.8693V81.8345C209.756 81.4003 209.634 81.0639 209.388 80.8253C209.147 80.5866 208.785 80.4673 208.305 80.4673C207.804 80.4673 207.41 80.5784 207.121 80.8004C206.836 81.0192 206.639 81.2628 206.53 81.5312L205.133 81.2131C205.299 80.7491 205.54 80.3745 205.859 80.0895C206.18 79.8011 206.55 79.5923 206.967 79.4631C207.385 79.3305 207.824 79.2642 208.285 79.2642C208.59 79.2642 208.913 79.3007 209.254 79.3736C209.599 79.4432 209.92 79.5724 210.219 79.7614C210.52 79.9503 210.767 80.2204 210.96 80.5717C211.152 80.9197 211.248 81.3722 211.248 81.929V87H209.796V85.956H209.737C209.64 86.1482 209.496 86.3371 209.304 86.5227C209.112 86.7083 208.865 86.8625 208.563 86.9851C208.262 87.1077 207.9 87.169 207.479 87.169ZM207.803 85.9759C208.214 85.9759 208.565 85.8946 208.857 85.7322C209.152 85.5698 209.375 85.3577 209.528 85.0959C209.683 84.8307 209.761 84.5473 209.761 84.2457V83.2614C209.708 83.3144 209.606 83.3641 209.453 83.4105C209.304 83.4536 209.133 83.4917 208.941 83.5249C208.749 83.5547 208.562 83.5829 208.379 83.6094C208.197 83.6326 208.045 83.6525 207.922 83.669C207.634 83.7055 207.37 83.7668 207.131 83.853C206.896 83.9392 206.707 84.0634 206.565 84.2259C206.425 84.3849 206.356 84.5971 206.356 84.8622C206.356 85.2301 206.492 85.5085 206.763 85.6974C207.035 85.883 207.382 85.9759 207.803 85.9759ZM213.228 87V79.3636H214.665V80.5767H214.744C214.883 80.1657 215.129 79.8426 215.48 79.6072C215.835 79.3686 216.236 79.2493 216.683 79.2493C216.776 79.2493 216.885 79.2526 217.011 79.2592C217.14 79.2659 217.242 79.2741 217.314 79.2841V80.706C217.255 80.6894 217.149 80.6712 216.996 80.6513C216.844 80.6281 216.691 80.6165 216.539 80.6165C216.188 80.6165 215.874 80.6911 215.599 80.8402C215.327 80.986 215.112 81.1899 214.953 81.4517C214.794 81.7102 214.714 82.0052 214.714 82.3366V87H213.228ZM218.601 87V79.3636H220.087V87H218.601ZM219.352 78.1854C219.093 78.1854 218.871 78.0992 218.685 77.9268C218.503 77.7512 218.412 77.5424 218.412 77.3004C218.412 77.0552 218.503 76.8464 218.685 76.674C218.871 76.4983 219.093 76.4105 219.352 76.4105C219.61 76.4105 219.83 76.4983 220.013 76.674C220.198 76.8464 220.291 77.0552 220.291 77.3004C220.291 77.5424 220.198 77.7512 220.013 77.9268C219.83 78.0992 219.61 78.1854 219.352 78.1854ZM223.574 82.4659V87H222.087V79.3636H223.514V80.6065H223.608C223.784 80.2022 224.059 79.8774 224.434 79.6321C224.812 79.3868 225.287 79.2642 225.861 79.2642C226.381 79.2642 226.837 79.3736 227.228 79.5923C227.619 79.8078 227.922 80.1293 228.138 80.5568C228.353 80.9844 228.461 81.513 228.461 82.1428V87H226.974V82.3217C226.974 81.7682 226.83 81.3357 226.542 81.0241C226.253 80.7093 225.857 80.5518 225.354 80.5518C225.009 80.5518 224.702 80.6264 224.434 80.7756C224.169 80.9247 223.958 81.1435 223.802 81.4318C223.65 81.7169 223.574 82.0616 223.574 82.4659ZM233.656 90.0227C233.05 90.0227 232.528 89.9432 232.09 89.7841C231.656 89.625 231.301 89.4145 231.026 89.1527C230.751 88.8909 230.546 88.6042 230.41 88.2926L231.687 87.7656C231.777 87.9115 231.896 88.0656 232.045 88.228C232.198 88.3937 232.403 88.5346 232.662 88.6506C232.924 88.7666 233.26 88.8246 233.671 88.8246C234.234 88.8246 234.7 88.687 235.068 88.4119C235.436 88.1402 235.62 87.706 235.62 87.1094V85.608H235.525C235.436 85.7704 235.307 85.951 235.138 86.1499C234.972 86.3487 234.743 86.5211 234.452 86.6669C234.16 86.8127 233.78 86.8857 233.313 86.8857C232.71 86.8857 232.166 86.7448 231.682 86.4631C231.202 86.178 230.821 85.7588 230.539 85.2053C230.26 84.6484 230.121 83.964 230.121 83.152C230.121 82.34 230.259 81.6439 230.534 81.0639C230.812 80.4839 231.193 80.0398 231.677 79.7315C232.161 79.42 232.71 79.2642 233.323 79.2642C233.797 79.2642 234.18 79.3438 234.471 79.5028C234.763 79.6586 234.99 79.8409 235.153 80.0497C235.318 80.2585 235.446 80.4425 235.535 80.6016H235.645V79.3636H237.101V87.169C237.101 87.8253 236.949 88.3639 236.644 88.7848C236.339 89.2057 235.926 89.5173 235.406 89.7195C234.889 89.9216 234.306 90.0227 233.656 90.0227ZM233.641 85.6527C234.069 85.6527 234.43 85.5533 234.725 85.3544C235.023 85.1522 235.249 84.8639 235.401 84.4893C235.557 84.1115 235.635 83.6591 235.635 83.1321C235.635 82.6184 235.559 82.166 235.406 81.7749C235.254 81.3838 235.03 81.0788 234.735 80.8601C234.44 80.638 234.075 80.527 233.641 80.527C233.194 80.527 232.821 80.643 232.523 80.875C232.224 81.1037 231.999 81.4152 231.846 81.8097C231.697 82.2041 231.623 82.6449 231.623 83.1321C231.623 83.6326 231.699 84.0717 231.851 84.4496C232.004 84.8274 232.229 85.1224 232.528 85.3345C232.829 85.5466 233.2 85.6527 233.641 85.6527ZM242.919 87V76.8182H246.549C247.341 76.8182 247.997 76.9624 248.517 77.2507C249.038 77.5391 249.427 77.9335 249.686 78.4339C249.944 78.9311 250.074 79.4912 250.074 80.1143C250.074 80.7408 249.943 81.3042 249.681 81.8047C249.422 82.3018 249.031 82.6963 248.507 82.9879C247.987 83.2763 247.333 83.4205 246.544 83.4205H244.048V82.1179H246.404C246.905 82.1179 247.311 82.0317 247.623 81.8594C247.934 81.6837 248.163 81.4451 248.309 81.1435C248.454 80.8419 248.527 80.4988 248.527 80.1143C248.527 79.7299 248.454 79.3885 248.309 79.0902C248.163 78.7919 247.932 78.5582 247.618 78.3892C247.306 78.2202 246.895 78.1357 246.385 78.1357H244.456V87H242.919ZM253.242 76.8182V87H251.755V76.8182H253.242ZM257.464 87.169C256.98 87.169 256.542 87.0795 256.151 86.9006C255.76 86.7183 255.45 86.4548 255.222 86.1101C254.996 85.7654 254.884 85.3428 254.884 84.8423C254.884 84.4115 254.966 84.0568 255.132 83.7784C255.298 83.5 255.522 83.2796 255.803 83.1172C256.085 82.9548 256.4 82.8321 256.748 82.7493C257.096 82.6664 257.451 82.6035 257.812 82.5604C258.269 82.5073 258.64 82.4643 258.925 82.4311C259.21 82.3946 259.418 82.3366 259.547 82.2571C259.676 82.1776 259.741 82.0483 259.741 81.8693V81.8345C259.741 81.4003 259.618 81.0639 259.373 80.8253C259.131 80.5866 258.77 80.4673 258.289 80.4673C257.789 80.4673 257.394 80.5784 257.106 80.8004C256.821 81.0192 256.624 81.2628 256.514 81.5312L255.117 81.2131C255.283 80.7491 255.525 80.3745 255.843 80.0895C256.165 79.8011 256.534 79.5923 256.952 79.4631C257.369 79.3305 257.808 79.2642 258.269 79.2642C258.574 79.2642 258.897 79.3007 259.239 79.3736C259.583 79.4432 259.905 79.5724 260.203 79.7614C260.505 79.9503 260.752 80.2204 260.944 80.5717C261.136 80.9197 261.232 81.3722 261.232 81.929V87H259.781V85.956H259.721C259.625 86.1482 259.481 86.3371 259.288 86.5227C259.096 86.7083 258.849 86.8625 258.548 86.9851C258.246 87.1077 257.885 87.169 257.464 87.169ZM257.787 85.9759C258.198 85.9759 258.549 85.8946 258.841 85.7322C259.136 85.5698 259.36 85.3577 259.512 85.0959C259.668 84.8307 259.746 84.5473 259.746 84.2457V83.2614C259.693 83.3144 259.59 83.3641 259.438 83.4105C259.288 83.4536 259.118 83.4917 258.925 83.5249C258.733 83.5547 258.546 83.5829 258.364 83.6094C258.181 83.6326 258.029 83.6525 257.906 83.669C257.618 83.7055 257.354 83.7668 257.116 83.853C256.88 83.9392 256.692 84.0634 256.549 84.2259C256.41 84.3849 256.34 84.5971 256.34 84.8622C256.34 85.2301 256.476 85.5085 256.748 85.6974C257.02 85.883 257.366 85.9759 257.787 85.9759ZM266.777 79.3636V80.5568H262.606V79.3636H266.777ZM263.724 77.5341H265.211V84.7578C265.211 85.0462 265.254 85.2633 265.34 85.4091C265.426 85.5516 265.537 85.6494 265.673 85.7024C265.812 85.7521 265.963 85.777 266.126 85.777C266.245 85.777 266.349 85.7687 266.439 85.7521C266.528 85.7356 266.598 85.7223 266.648 85.7124L266.916 86.9403C266.83 86.9735 266.707 87.0066 266.548 87.0398C266.389 87.0762 266.19 87.0961 265.952 87.0994C265.56 87.1061 265.196 87.0365 264.858 86.8906C264.52 86.7448 264.246 86.5194 264.037 86.2145C263.829 85.9096 263.724 85.5268 263.724 85.0661V77.5341ZM272.055 79.3636V80.5568H267.74V79.3636H272.055ZM268.923 87V78.4787C268.923 78.0014 269.028 77.6053 269.237 77.2905C269.445 76.9723 269.722 76.7353 270.067 76.5795C270.411 76.4205 270.786 76.3409 271.19 76.3409C271.489 76.3409 271.744 76.3658 271.956 76.4155C272.168 76.4619 272.326 76.505 272.428 76.5447L272.08 77.7479C272.011 77.728 271.921 77.7048 271.812 77.6783C271.702 77.6484 271.57 77.6335 271.414 77.6335C271.053 77.6335 270.794 77.723 270.638 77.902C270.486 78.081 270.41 78.3395 270.41 78.6776V87H268.923ZM276.505 87.1541C275.789 87.1541 275.164 86.9901 274.631 86.6619C274.097 86.3338 273.683 85.8748 273.388 85.2848C273.093 84.6948 272.945 84.0054 272.945 83.2166C272.945 82.4245 273.093 81.7318 273.388 81.1385C273.683 80.5452 274.097 80.0845 274.631 79.7564C275.164 79.4283 275.789 79.2642 276.505 79.2642C277.221 79.2642 277.846 79.4283 278.379 79.7564C278.913 80.0845 279.327 80.5452 279.622 81.1385C279.917 81.7318 280.065 82.4245 280.065 83.2166C280.065 84.0054 279.917 84.6948 279.622 85.2848C279.327 85.8748 278.913 86.3338 278.379 86.6619C277.846 86.9901 277.221 87.1541 276.505 87.1541ZM276.51 85.9062C276.974 85.9062 277.358 85.7836 277.663 85.5384C277.968 85.2931 278.194 84.9666 278.339 84.5589C278.489 84.1513 278.563 83.7022 278.563 83.2116C278.563 82.7244 278.489 82.277 278.339 81.8693C278.194 81.4583 277.968 81.1286 277.663 80.88C277.358 80.6314 276.974 80.5071 276.51 80.5071C276.043 80.5071 275.655 80.6314 275.347 80.88C275.042 81.1286 274.815 81.4583 274.665 81.8693C274.52 82.277 274.447 82.7244 274.447 83.2116C274.447 83.7022 274.52 84.1513 274.665 84.5589C274.815 84.9666 275.042 85.2931 275.347 85.5384C275.655 85.7836 276.043 85.9062 276.51 85.9062ZM281.724 87V79.3636H283.161V80.5767H283.24C283.379 80.1657 283.625 79.8426 283.976 79.6072C284.331 79.3686 284.732 79.2493 285.179 79.2493C285.272 79.2493 285.381 79.2526 285.507 79.2592C285.637 79.2659 285.738 79.2741 285.811 79.2841V80.706C285.751 80.6894 285.645 80.6712 285.492 80.6513C285.34 80.6281 285.187 80.6165 285.035 80.6165C284.684 80.6165 284.37 80.6911 284.095 80.8402C283.824 80.986 283.608 81.1899 283.449 81.4517C283.29 81.7102 283.21 82.0052 283.21 82.3366V87H281.724ZM287.097 87V79.3636H288.524V80.6065H288.618C288.777 80.1856 289.038 79.8575 289.399 79.6222C289.76 79.3835 290.193 79.2642 290.696 79.2642C291.207 79.2642 291.634 79.3835 291.979 79.6222C292.327 79.8608 292.584 80.1889 292.75 80.6065H292.829C293.011 80.1989 293.301 79.8741 293.699 79.6321C294.097 79.3868 294.571 79.2642 295.121 79.2642C295.814 79.2642 296.379 79.4813 296.816 79.9155C297.257 80.3497 297.478 81.0043 297.478 81.8793V87H295.991V82.0185C295.991 81.5014 295.85 81.1269 295.569 80.8949C295.287 80.6629 294.95 80.5469 294.559 80.5469C294.075 80.5469 293.699 80.696 293.431 80.9943C293.162 81.2893 293.028 81.6688 293.028 82.1328V87H291.547V81.924C291.547 81.5097 291.417 81.1766 291.159 80.9247C290.9 80.6728 290.564 80.5469 290.15 80.5469C289.868 80.5469 289.608 80.6214 289.369 80.7706C289.134 80.9164 288.943 81.1203 288.797 81.3821C288.655 81.6439 288.583 81.9472 288.583 82.2919V87H287.097ZM60.6335 100.364V101.557H56.3182V100.364H60.6335ZM57.5014 108V99.4787C57.5014 99.0014 57.6058 98.6053 57.8146 98.2905C58.0234 97.9723 58.3002 97.7353 58.6449 97.5795C58.9896 97.4205 59.3641 97.3409 59.7685 97.3409C60.0668 97.3409 60.322 97.3658 60.5341 97.4155C60.7462 97.4619 60.9036 97.505 61.0064 97.5447L60.6584 98.7479C60.5888 98.728 60.4993 98.7048 60.3899 98.6783C60.2805 98.6484 60.148 98.6335 59.9922 98.6335C59.6309 98.6335 59.3724 98.723 59.2166 98.902C59.0642 99.081 58.9879 99.3395 58.9879 99.6776V108H57.5014ZM65.0831 108.154C64.3672 108.154 63.7424 107.99 63.2088 107.662C62.6752 107.334 62.2609 106.875 61.9659 106.285C61.6709 105.695 61.5234 105.005 61.5234 104.217C61.5234 103.424 61.6709 102.732 61.9659 102.138C62.2609 101.545 62.6752 101.085 63.2088 100.756C63.7424 100.428 64.3672 100.264 65.0831 100.264C65.799 100.264 66.4238 100.428 66.9574 100.756C67.491 101.085 67.9053 101.545 68.2003 102.138C68.4953 102.732 68.6428 103.424 68.6428 104.217C68.6428 105.005 68.4953 105.695 68.2003 106.285C67.9053 106.875 67.491 107.334 66.9574 107.662C66.4238 107.99 65.799 108.154 65.0831 108.154ZM65.0881 106.906C65.5521 106.906 65.9366 106.784 66.2415 106.538C66.5464 106.293 66.7718 105.967 66.9176 105.559C67.0668 105.151 67.1413 104.702 67.1413 104.212C67.1413 103.724 67.0668 103.277 66.9176 102.869C66.7718 102.458 66.5464 102.129 66.2415 101.88C65.9366 101.631 65.5521 101.507 65.0881 101.507C64.6207 101.507 64.233 101.631 63.9247 101.88C63.6198 102.129 63.3928 102.458 63.2436 102.869C63.0978 103.277 63.0249 103.724 63.0249 104.212C63.0249 104.702 63.0978 105.151 63.2436 105.559C63.3928 105.967 63.6198 106.293 63.9247 106.538C64.233 106.784 64.6207 106.906 65.0881 106.906ZM70.302 108V100.364H71.7388V101.577H71.8184C71.9576 101.166 72.2028 100.843 72.5542 100.607C72.9088 100.369 73.3098 100.249 73.7573 100.249C73.8501 100.249 73.9595 100.253 74.0854 100.259C74.2147 100.266 74.3158 100.274 74.3887 100.284V101.706C74.329 101.689 74.223 101.671 74.0705 101.651C73.918 101.628 73.7656 101.616 73.6131 101.616C73.2618 101.616 72.9486 101.691 72.6735 101.84C72.4017 101.986 72.1863 102.19 72.0272 102.452C71.8681 102.71 71.7885 103.005 71.7885 103.337V108H70.302ZM79.4995 108V97.8182H81.0357V102.68H81.16L85.4306 97.8182H87.3645L83.258 102.402L87.3794 108H85.53L82.2388 103.451L81.0357 104.833V108H79.4995ZM89.6564 108H88.0257L91.6898 97.8182H93.4647L97.1287 108H95.498L92.6195 99.6676H92.54L89.6564 108ZM89.9299 104.013H95.2196V105.305H89.9299V104.013ZM100.135 97.8182V108H98.5991V97.8182H100.135ZM107.926 100.493C107.873 100.022 107.654 99.6577 107.27 99.3991C106.885 99.1373 106.401 99.0064 105.818 99.0064C105.4 99.0064 105.039 99.0727 104.734 99.2053C104.429 99.3345 104.192 99.5135 104.023 99.7422C103.857 99.9676 103.775 100.224 103.775 100.513C103.775 100.755 103.831 100.964 103.944 101.139C104.06 101.315 104.21 101.462 104.396 101.582C104.585 101.698 104.787 101.795 105.002 101.875C105.218 101.951 105.425 102.014 105.624 102.064L106.618 102.322C106.943 102.402 107.276 102.51 107.618 102.646C107.959 102.781 108.275 102.96 108.567 103.183C108.859 103.405 109.094 103.68 109.273 104.008C109.455 104.336 109.547 104.729 109.547 105.186C109.547 105.763 109.397 106.275 109.099 106.722C108.804 107.17 108.375 107.523 107.811 107.781C107.251 108.04 106.574 108.169 105.778 108.169C105.016 108.169 104.356 108.048 103.799 107.806C103.243 107.564 102.807 107.221 102.492 106.777C102.177 106.33 102.003 105.799 101.97 105.186H103.511C103.541 105.554 103.66 105.861 103.869 106.106C104.081 106.348 104.351 106.528 104.679 106.648C105.011 106.764 105.374 106.822 105.768 106.822C106.202 106.822 106.588 106.754 106.926 106.618C107.268 106.479 107.536 106.286 107.732 106.041C107.927 105.793 108.025 105.503 108.025 105.171C108.025 104.87 107.939 104.623 107.767 104.43C107.598 104.238 107.367 104.079 107.076 103.953C106.787 103.827 106.461 103.716 106.096 103.62L104.893 103.292C104.078 103.07 103.431 102.743 102.954 102.312C102.48 101.882 102.243 101.312 102.243 100.602C102.243 100.016 102.402 99.5036 102.721 99.0661C103.039 98.6286 103.47 98.2888 104.013 98.0469C104.557 97.8016 105.17 97.679 105.853 97.679C106.542 97.679 107.15 97.8 107.677 98.0419C108.208 98.2839 108.625 98.617 108.93 99.0412C109.235 99.4621 109.394 99.946 109.407 100.493H107.926ZM110.88 99.1406V97.8182H118.76V99.1406H115.583V108H114.052V99.1406H110.88ZM120.883 108.094C120.611 108.094 120.378 107.998 120.182 107.806C119.986 107.611 119.889 107.375 119.889 107.1C119.889 106.828 119.986 106.596 120.182 106.404C120.378 106.209 120.611 106.111 120.883 106.111C121.155 106.111 121.388 106.209 121.584 106.404C121.78 106.596 121.877 106.828 121.877 107.1C121.877 107.282 121.831 107.45 121.738 107.602C121.649 107.751 121.529 107.871 121.38 107.96C121.231 108.05 121.065 108.094 120.883 108.094Z" fill="#0C0E12"/>
</g>
<g filter="url(#filter2_d_174_14436)">
<path d="M40 153C40 141.954 48.9543 133 60 133H105C116.046 133 125 141.954 125 153V154C125 165.046 116.046 174 105 174H44C41.7909 174 40 172.209 40 170V153Z" fill="#AFEEB8" shape-rendering="crispEdges"/>
<path d="M57.1186 159V148.818H63.5021V150.141H58.6548V153.243H63.169V154.56H58.6548V157.678H63.5618V159H57.1186ZM66.9213 154.466V159H65.4348V151.364H66.8617V152.607H66.9561C67.1318 152.202 67.4069 151.877 67.7814 151.632C68.1593 151.387 68.6349 151.264 69.2083 151.264C69.7286 151.264 70.1844 151.374 70.5755 151.592C70.9666 151.808 71.2698 152.129 71.4853 152.557C71.7007 152.984 71.8084 153.513 71.8084 154.143V159H70.3219V154.322C70.3219 153.768 70.1777 153.336 69.8894 153.024C69.601 152.709 69.205 152.552 68.7012 152.552C68.3565 152.552 68.0499 152.626 67.7814 152.776C67.5163 152.925 67.3058 153.143 67.15 153.432C66.9976 153.717 66.9213 154.062 66.9213 154.466ZM73.802 151.364H75.2885V159.497C75.2885 160.008 75.1957 160.438 75.0101 160.79C74.8278 161.141 74.556 161.408 74.1948 161.59C73.8368 161.772 73.3944 161.864 72.8674 161.864C72.8143 161.864 72.7646 161.864 72.7182 161.864C72.6685 161.864 72.6171 161.862 72.5641 161.859V160.581C72.6105 160.581 72.6519 160.581 72.6884 160.581C72.7215 160.581 72.7596 160.581 72.8027 160.581C73.1541 160.581 73.4076 160.487 73.5634 160.298C73.7225 160.112 73.802 159.842 73.802 159.487V151.364ZM74.5378 150.185C74.2793 150.185 74.0572 150.099 73.8716 149.927C73.6893 149.751 73.5982 149.542 73.5982 149.3C73.5982 149.055 73.6893 148.846 73.8716 148.674C74.0572 148.498 74.2793 148.411 74.5378 148.411C74.7963 148.411 75.0167 148.498 75.199 148.674C75.3846 148.846 75.4775 149.055 75.4775 149.3C75.4775 149.542 75.3846 149.751 75.199 149.927C75.0167 150.099 74.7963 150.185 74.5378 150.185ZM80.505 159.154C79.7891 159.154 79.1643 158.99 78.6307 158.662C78.0971 158.334 77.6828 157.875 77.3878 157.285C77.0928 156.695 76.9453 156.005 76.9453 155.217C76.9453 154.424 77.0928 153.732 77.3878 153.138C77.6828 152.545 78.0971 152.085 78.6307 151.756C79.1643 151.428 79.7891 151.264 80.505 151.264C81.2209 151.264 81.8456 151.428 82.3793 151.756C82.9129 152.085 83.3272 152.545 83.6222 153.138C83.9171 153.732 84.0646 154.424 84.0646 155.217C84.0646 156.005 83.9171 156.695 83.6222 157.285C83.3272 157.875 82.9129 158.334 82.3793 158.662C81.8456 158.99 81.2209 159.154 80.505 159.154ZM80.5099 157.906C80.974 157.906 81.3584 157.784 81.6634 157.538C81.9683 157.293 82.1937 156.967 82.3395 156.559C82.4886 156.151 82.5632 155.702 82.5632 155.212C82.5632 154.724 82.4886 154.277 82.3395 153.869C82.1937 153.458 81.9683 153.129 81.6634 152.88C81.3584 152.631 80.974 152.507 80.5099 152.507C80.0426 152.507 79.6548 152.631 79.3466 152.88C79.0417 153.129 78.8146 153.458 78.6655 153.869C78.5196 154.277 78.4467 154.724 78.4467 155.212C78.4467 155.702 78.5196 156.151 78.6655 156.559C78.8146 156.967 79.0417 157.293 79.3466 157.538C79.6548 157.784 80.0426 157.906 80.5099 157.906ZM86.4038 161.864C86.1817 161.864 85.9795 161.845 85.7972 161.809C85.6149 161.776 85.479 161.739 85.3896 161.7L85.7475 160.482C86.0193 160.554 86.2612 160.586 86.4734 160.576C86.6855 160.566 86.8728 160.487 87.0352 160.337C87.2009 160.188 87.3467 159.945 87.4727 159.607L87.6566 159.099L84.8626 151.364H86.4535L88.3874 157.29H88.467L90.4009 151.364H91.9968L88.8498 160.019C88.704 160.417 88.5183 160.753 88.293 161.028C88.0676 161.307 87.7991 161.516 87.4876 161.655C87.176 161.794 86.8147 161.864 86.4038 161.864ZM97.0989 159V151.364H98.5854V159H97.0989ZM97.8496 150.185C97.5911 150.185 97.369 150.099 97.1834 149.927C97.0011 149.751 96.91 149.542 96.91 149.3C96.91 149.055 97.0011 148.846 97.1834 148.674C97.369 148.498 97.5911 148.411 97.8496 148.411C98.1081 148.411 98.3285 148.498 98.5108 148.674C98.6964 148.846 98.7892 149.055 98.7892 149.3C98.7892 149.542 98.6964 149.751 98.5108 149.927C98.3285 150.099 98.1081 150.185 97.8496 150.185ZM104.15 151.364V152.557H99.9787V151.364H104.15ZM101.097 149.534H102.584V156.758C102.584 157.046 102.627 157.263 102.713 157.409C102.799 157.552 102.91 157.649 103.046 157.702C103.185 157.752 103.336 157.777 103.499 157.777C103.618 157.777 103.722 157.769 103.812 157.752C103.901 157.736 103.971 157.722 104.021 157.712L104.289 158.94C104.203 158.973 104.08 159.007 103.921 159.04C103.762 159.076 103.563 159.096 103.325 159.099C102.933 159.106 102.569 159.036 102.231 158.891C101.893 158.745 101.619 158.519 101.411 158.214C101.202 157.91 101.097 157.527 101.097 157.066V149.534ZM107.669 148.818L107.539 156.072H106.162L106.033 148.818H107.669ZM106.853 159.094C106.578 159.094 106.343 158.998 106.147 158.806C105.952 158.611 105.856 158.375 105.859 158.1C105.856 157.828 105.952 157.596 106.147 157.404C106.343 157.209 106.578 157.111 106.853 157.111C107.122 157.111 107.354 157.209 107.549 157.404C107.745 157.596 107.844 157.828 107.847 158.1C107.844 158.282 107.796 158.45 107.703 158.602C107.614 158.751 107.494 158.871 107.345 158.96C107.196 159.05 107.032 159.094 106.853 159.094Z" fill="#0C0E12"/>
</g>
<g filter="url(#filter3_d_174_14436)">
<path d="M40 204C40 192.954 48.9543 184 60 184H144C155.046 184 164 192.954 164 204V208C164 219.046 155.046 228 144 228H44C41.7909 228 40 226.209 40 224V204Z" fill="#AFEEB8" shape-rendering="crispEdges"/>
<g clip-path="url(#clip1_174_14436)">
<path d="M79.3337 211.333C79.3337 212.041 79.0527 212.719 78.5526 213.219C78.0525 213.719 77.3742 214 76.667 214H59.3337C58.6264 214 57.9481 213.719 57.448 213.219C56.9479 212.719 56.667 212.041 56.667 211.333V198.209C56.667 196.736 60.5277 194 62.0003 194H75.7503C77.813 194 79.3337 195.541 79.3337 197.583V211.333Z" fill="#A0041E"/>
<path d="M78 214C78 214.707 77.719 215.385 77.219 215.886C76.7189 216.386 76.0406 216.667 75.3333 216.667H60.6667C59.9594 216.667 59.2811 216.386 58.781 215.886C58.281 215.385 58 214.707 58 214V198C58 195.254 57.986 195.333 61.3333 195.333H75.3333C76.0406 195.333 76.7189 195.614 77.219 196.114C77.719 196.614 78 197.293 78 198V214Z" fill="#CCD6DD"/>
<path d="M76.667 214.667C76.667 215.197 76.4563 215.706 76.0812 216.081C75.7061 216.456 75.1974 216.667 74.667 216.667H58.667C58.1366 216.667 57.6279 216.456 57.2528 216.081C56.8777 215.706 56.667 215.197 56.667 214.667V198.667C56.667 198.136 56.8777 197.628 57.2528 197.252C57.6279 196.877 58.1366 196.667 58.667 196.667H74.667C75.1974 196.667 75.7061 196.877 76.0812 197.252C76.4563 197.628 76.667 198.136 76.667 198.667V214.667Z" fill="#E1E8ED"/>
<path d="M76.6663 215.333C76.6663 216.041 76.3854 216.719 75.8853 217.219C75.3852 217.719 74.7069 218 73.9997 218H59.9997C59.2924 218 58.6142 217.719 58.1141 217.219C57.614 216.719 57.333 216.041 57.333 215.333V200.667C57.333 199.959 57.614 199.281 58.1141 198.781C58.6142 198.281 59.2924 198 59.9997 198H73.9997C74.7069 198 75.3852 198.281 75.8853 198.781C76.3854 199.281 76.6663 199.959 76.6663 200.667V215.333Z" fill="#BE1931"/>
<path d="M75.333 215.333C75.333 216.041 75.0521 216.719 74.552 217.219C74.0519 217.719 73.3736 218 72.6663 218H59.9997C59.2924 218 58.6142 217.719 58.1141 217.219C57.614 216.719 57.333 216.041 57.333 215.333V202C57.333 201.293 57.614 200.614 58.1141 200.114C58.6142 199.614 59.2924 199.333 59.9997 199.333H72.8897C74.3623 199.333 75.333 200.304 75.333 201.777V215.333Z" fill="#DD2E44"/>
<path d="M60.0003 198C58.875 198 58.8463 196.719 59.3337 196.167C59.8883 195.539 60.7503 195.333 62.2923 195.333H63.3337V194H61.521C58.875 194 56.667 195.667 56.667 197.583V215.333C56.667 216.041 56.9479 216.719 57.448 217.219C57.9481 217.719 58.6264 218 59.3337 218H60.667V198H60.0003Z" fill="#A0041E"/>
</g>
<g clip-path="url(#clip2_174_14436)">
<path d="M99.9997 214.667C99.9997 216.139 99.4723 217.333 97.9997 217.333H93.333C90.6663 217.333 90.6663 208 93.333 208H97.9997C99.4723 208 99.9997 209.194 99.9997 210.667V214.667Z" fill="#553788"/>
<path d="M112.667 216H112V209.333H112.667C112.844 209.333 113.013 209.263 113.138 209.138C113.263 209.013 113.334 208.843 113.334 208.667C113.334 208.49 113.263 208.32 113.138 208.195C113.013 208.07 112.844 208 112.667 208H96.667C94.0003 208 94.0003 217.333 96.667 217.333H112.667C112.844 217.333 113.013 217.263 113.138 217.138C113.263 217.013 113.334 216.843 113.334 216.667C113.334 216.49 113.263 216.32 113.138 216.195C113.013 216.07 112.844 216 112.667 216Z" fill="#9266CC"/>
<path d="M112.781 216H97.333C95.9997 216 95.9997 209.333 97.333 209.333H112.781C113.517 209.333 113.517 216 112.781 216Z" fill="#CCD6DD"/>
<path d="M97.6668 210.667H113.233C113.143 209.883 112.993 209.333 112.781 209.333H97.3335C96.2328 209.333 96.0415 213.872 96.7581 215.459C96.4968 213.486 96.7995 210.667 97.6668 210.667Z" fill="#99AAB5"/>
<path d="M98.0003 199.333C98.0003 200.041 97.7194 200.719 97.2193 201.219C96.7192 201.719 96.0409 202 95.3337 202H92.667C90.0003 202 90.0003 194.667 92.667 194.667H95.3337C96.0409 194.667 96.7192 194.948 97.2193 195.448C97.7194 195.948 98.0003 196.626 98.0003 197.333V199.333Z" fill="#226699"/>
<path d="M110.667 200.667H110V196H110.667C110.844 196 111.013 195.93 111.138 195.805C111.263 195.68 111.334 195.51 111.334 195.333C111.334 195.157 111.263 194.987 111.138 194.862C111.013 194.737 110.844 194.667 110.667 194.667H94.667C92.0003 194.667 92.0003 202 94.667 202H110.667C110.844 202 111.013 201.93 111.138 201.805C111.263 201.68 111.334 201.51 111.334 201.333C111.334 201.157 111.263 200.987 111.138 200.862C111.013 200.737 110.844 200.667 110.667 200.667Z" fill="#55ACEE"/>
<path d="M110.781 200.667H95.333C93.9997 200.667 93.9997 196 95.333 196H110.781C111.517 196 111.517 200.667 110.781 200.667Z" fill="#CCD6DD"/>
<path d="M95.3333 197.333H111.283C111.207 196.583 111.041 196 110.781 196H95.3333C94.538 196 94.2206 197.659 94.3746 199C94.4786 198.095 94.7953 197.333 95.3333 197.333Z" fill="#99AAB5"/>
<path d="M103.333 205.333C103.333 206.041 103.052 206.719 102.552 207.219C102.052 207.719 101.374 208 100.667 208H94C91.3333 208 91.3333 202 94 202H100.667C101.374 202 102.052 202.281 102.552 202.781C103.052 203.281 103.333 203.959 103.333 204.667V205.333Z" fill="#F4900C"/>
<path d="M113.333 206.667H112.667V203.333H113.333C113.51 203.333 113.68 203.263 113.805 203.138C113.93 203.013 114 202.843 114 202.667C114 202.49 113.93 202.32 113.805 202.195C113.68 202.07 113.51 202 113.333 202H100C97.3333 202 97.3333 208 100 208H113.333C113.51 208 113.68 207.93 113.805 207.805C113.93 207.68 114 207.51 114 207.333C114 207.157 113.93 206.987 113.805 206.862C113.68 206.737 113.51 206.667 113.333 206.667Z" fill="#FFAC33"/>
<path d="M113.448 206.667H100.667C99.3337 206.667 99.3337 203.333 100.667 203.333H113.448C114.184 203.333 114.184 206.667 113.448 206.667Z" fill="#CCD6DD"/>
<path d="M100.667 204.667H113.989C113.946 203.959 113.767 203.333 113.448 203.333H100.667C99.8173 203.333 99.5113 204.685 99.7446 205.667C99.8766 205.107 100.183 204.667 100.667 204.667Z" fill="#99AAB5"/>
</g>
<path d="M147.924 201.889C147.924 198.255 144.978 195.31 141.346 195.31C139.14 195.31 137.194 196.399 136 198.063C134.806 196.399 132.86 195.31 130.656 195.31C127.022 195.31 124.077 198.255 124.077 201.889C124.077 202.403 124.142 202.902 124.254 203.383C125.168 209.058 131.478 215.045 136 216.689C140.522 215.045 146.833 209.058 147.745 203.383C147.858 202.903 147.924 202.404 147.924 201.889Z" fill="#78B159"/>
</g>
<defs>
<filter id="filter0_d_174_14436" x="36" y="8" width="105" height="49" filterUnits="userSpaceOnUse" color-interpolation-filters="sRGB">
<feFlood flood-opacity="0" result="BackgroundImageFix"/>
<feColorMatrix in="SourceAlpha" type="matrix" values="0 0 0 0 0 0 0 0 0 0 0 0 0 0 0 0 0 0 127 0" result="hardAlpha"/>
<feOffset dy="2"/>
<feGaussianBlur stdDeviation="2"/>
<feComposite in2="hardAlpha" operator="out"/>
<feColorMatrix type="matrix" values="0 0 0 0 0 0 0 0 0 0 0 0 0 0 0 0 0 0 0.1 0"/>
<feBlend mode="normal" in2="BackgroundImageFix" result="effect1_dropShadow_174_14436"/>
<feBlend mode="normal" in="SourceGraphic" in2="effect1_dropShadow_174_14436" result="shape"/>
</filter>
<filter id="filter1_d_174_14436" x="36" y="59" width="283" height="70" filterUnits="userSpaceOnUse" color-interpolation-filters="sRGB">
<feFlood flood-opacity="0" result="BackgroundImageFix"/>
<feColorMatrix in="SourceAlpha" type="matrix" values="0 0 0 0 0 0 0 0 0 0 0 0 0 0 0 0 0 0 127 0" result="hardAlpha"/>
<feOffset dy="2"/>
<feGaussianBlur stdDeviation="2"/>
<feComposite in2="hardAlpha" operator="out"/>
<feColorMatrix type="matrix" values="0 0 0 0 0 0 0 0 0 0 0 0 0 0 0 0 0 0 0.1 0"/>
<feBlend mode="normal" in2="BackgroundImageFix" result="effect1_dropShadow_174_14436"/>
<feBlend mode="normal" in="SourceGraphic" in2="effect1_dropShadow_174_14436" result="shape"/>
</filter>
<filter id="filter2_d_174_14436" x="36" y="131" width="93" height="49" filterUnits="userSpaceOnUse" color-interpolation-filters="sRGB">
<feFlood flood-opacity="0" result="BackgroundImageFix"/>
<feColorMatrix in="SourceAlpha" type="matrix" values="0 0 0 0 0 0 0 0 0 0 0 0 0 0 0 0 0 0 127 0" result="hardAlpha"/>
<feOffset dy="2"/>
<feGaussianBlur stdDeviation="2"/>
<feComposite in2="hardAlpha" operator="out"/>
<feColorMatrix type="matrix" values="0 0 0 0 0 0 0 0 0 0 0 0 0 0 0 0 0 0 0.1 0"/>
<feBlend mode="normal" in2="BackgroundImageFix" result="effect1_dropShadow_174_14436"/>
<feBlend mode="normal" in="SourceGraphic" in2="effect1_dropShadow_174_14436" result="shape"/>
</filter>
<filter id="filter3_d_174_14436" x="36" y="182" width="132" height="52" filterUnits="userSpaceOnUse" color-interpolation-filters="sRGB">
<feFlood flood-opacity="0" result="BackgroundImageFix"/>
<feColorMatrix in="SourceAlpha" type="matrix" values="0 0 0 0 0 0 0 0 0 0 0 0 0 0 0 0 0 0 127 0" result="hardAlpha"/>
<feOffset dy="2"/>
<feGaussianBlur stdDeviation="2"/>
<feComposite in2="hardAlpha" operator="out"/>
<feColorMatrix type="matrix" values="0 0 0 0 0 0 0 0 0 0 0 0 0 0 0 0 0 0 0.1 0"/>
<feBlend mode="normal" in2="BackgroundImageFix" result="effect1_dropShadow_174_14436"/>
<feBlend mode="normal" in="SourceGraphic" in2="effect1_dropShadow_174_14436" result="shape"/>
</filter>
<clipPath id="clip0_174_14436">
<rect width="20" height="20" fill="white" transform="translate(101 20.5)"/>
</clipPath>
<clipPath id="clip1_174_14436">
<rect width="24" height="24" fill="white" transform="translate(56 194)"/>
</clipPath>
<clipPath id="clip2_174_14436">
<rect width="24" height="24" fill="white" transform="translate(90 194)"/>
</clipPath>
</defs>
</svg>
