<svg width="120" height="120" viewBox="0 0 120 120" fill="none" xmlns="http://www.w3.org/2000/svg">
<g id="Logo / Symbol">
<path id="Vector" d="M79.08 66.0603C74.3631 66.7407 74.7898 64.5725 76.1391 64.1228C77.4885 63.673 80.4755 62.4851 83.1972 61.1127C85.8612 59.7634 85.2039 58.3448 84.016 58.8754C82.9319 59.3597 77.5461 62.5658 73.3367 62.4851C69.1272 62.4044 71.6068 59.8556 73.4866 59.1752C78.3534 57.4222 82.09 55.3463 83.2894 54.4468C84.4888 53.5472 83.9699 52.2325 81.9171 53.3858C79.1607 54.9196 71.2377 58.4256 69.1964 57.5952C67.1667 56.7649 69.9461 54.8158 71.9066 53.9047C73.8672 53.0052 80.9368 49.4646 82.2169 48.4844C83.497 47.5041 82.3899 46.7083 81.0406 47.5387C79.6912 48.369 71.7567 51.7251 71.157 50.4449C70.5573 49.1648 72.3564 47.9654 74.317 46.7544C75.8278 45.8203 84.4543 40.3884 88.2831 37.978V22.6626C88.2831 22.6626 88.2831 22.6164 88.2831 22.5934C88.2831 22.4896 88.2601 22.3858 88.237 22.282C88.237 22.2474 88.2255 22.2128 88.2139 22.1666C88.1793 22.0398 88.1332 21.9129 88.064 21.7976C87.9948 21.6823 87.9141 21.5785 87.8218 21.4747C87.7987 21.4516 87.7757 21.4285 87.7411 21.4055C87.6604 21.3363 87.5796 21.2671 87.4874 21.2094C87.4643 21.1979 87.4528 21.1864 87.4412 21.1748C87.4297 21.1748 87.4182 21.1748 87.4066 21.1633C87.2798 21.0941 87.1644 21.0364 87.0261 21.0018C86.8992 20.9672 86.7608 20.9557 86.6339 20.9557C86.5993 20.9557 86.5532 20.9557 86.5186 20.9557C86.4148 20.9557 86.3226 20.9788 86.2188 20.9903C86.1842 20.9903 86.1496 21.0018 86.1034 21.0134C85.9766 21.048 85.8382 21.1056 85.7229 21.1748L48.1261 42.8564C47.6648 43.1216 47.1804 43.3408 46.6845 43.5253C44.1589 44.4248 41.1257 44.2634 38.6808 43.1908C37.7005 42.7641 36.824 42.1875 36.109 41.4725C35.8668 41.2303 35.6708 40.9881 35.4747 40.7344C35.4401 40.6882 35.4055 40.6421 35.3709 40.596C35.1979 40.3538 35.048 40.1001 34.9327 39.8348C34.9096 39.7887 34.8865 39.731 34.8635 39.6849C34.7481 39.4196 34.6443 39.1428 34.5751 38.8545C34.5751 38.843 34.5751 38.8315 34.5751 38.8084C34.506 38.5085 34.4714 38.1972 34.4714 37.8973V37.8281C34.4714 37.8281 34.4714 37.8166 34.4714 37.805C34.4714 37.6436 34.4714 37.4821 34.506 37.3207C34.7135 35.7753 35.7515 34.3913 37.4353 33.4226L72.3795 13.2288C73.2098 12.7559 73.4866 11.6949 73.0138 10.8646C72.5409 10.0342 71.4799 9.75741 70.6496 10.2303L35.6823 30.4241C33.0874 31.9233 31.4036 34.2645 31.0577 36.8709C31.0115 37.2399 31 37.609 31 37.9665V69.6585C31.5305 71.6075 33.3757 73.6488 37.2277 73.5219C40.3185 73.4181 50.3981 68.1938 53.6849 66.6023C56.9602 65.0108 58.1942 67.6056 53.8925 70.3158C49.4409 73.1183 47.1574 74.3177 47.4342 75.1365C47.8032 76.2552 53.6503 72.853 55.6801 71.3307C58.7478 69.0357 60.6276 68.6897 61.2504 69.6585C61.8731 70.6272 60.0164 73.2567 55.9223 76.0591C51.8281 78.8501 48.4721 79.715 48.9334 80.8337C49.2679 81.6525 55.1496 78.5733 56.7411 77.4546C58.3326 76.3475 60.3162 75.471 60.8467 76.2898C61.3772 77.1086 60.9967 79.0807 55.115 82.9557C49.1871 86.8538 48.253 87.3843 48.6912 88.157C49.1295 88.9297 55.1611 84.8356 56.4528 84.0052C57.2716 83.4862 58.6901 83.4286 58.9208 84.4435C59.163 85.4583 56.6373 89.1142 49.4063 93.3121C44.378 96.2299 35.9014 99.9435 31.1845 101.939C31.5305 103.53 32.3839 105.052 33.6525 106.321C36.0629 108.731 39.5804 110 43.1094 110C45.4621 110 47.8147 109.435 49.8445 108.259L87.4066 86.577C87.9371 86.2656 88.2716 85.7005 88.2716 85.0777V62.9695C85.5845 64.2265 82.09 65.6335 79.0685 66.0718L79.08 66.0603Z" fill="white"/>
</g>
</svg>
