<svg width="151" height="39" viewBox="0 0 151 39" fill="none" xmlns="http://www.w3.org/2000/svg">
<g id="Group 9">
<path id="Vector" d="M12.8434 18.9792C12.8434 18.696 12.985 18.3703 13.3107 18.0304C14.4435 16.756 15.109 15.0993 15.109 13.0035V8.78377C15.109 3.3887 11.8946 0.825684 8.05721 0.825684H1.04786C0.424809 0.825684 0 1.26465 0 1.87355V3.48782C0 4.76225 1.69924 3.91263 1.69924 5.18705V33.5643C1.69924 34.8387 0 33.9891 0 35.2635V36.8778C0 37.5008 0.424809 37.9257 1.04786 37.9257H8.39705C12.2345 37.9257 15.3639 35.4193 15.3639 29.9676V25.4221C15.3639 23.1989 14.5568 21.3015 13.3673 20.027C13.0416 19.7014 12.8434 19.3615 12.8434 18.9792ZM5.21099 5.3853C5.21099 4.76225 5.6358 4.33744 6.25885 4.33744H8.05721C10.2804 4.33744 11.6539 5.6685 11.6539 8.45808V13.3859C11.6539 15.9914 10.1813 17.5065 8.38289 17.5065H6.24469C5.6358 17.5065 5.19683 17.0817 5.19683 16.4586V5.3853H5.21099ZM11.7955 30.3074C11.7955 33.097 10.6627 34.4281 8.38289 34.4281H6.24469C5.6358 34.4281 5.19683 34.0033 5.19683 33.3802V21.967C5.19683 21.344 5.62164 20.9191 6.24469 20.9191H8.28377C10.3653 20.9191 11.7955 22.3352 11.7955 25.0398V30.2933V30.3074Z" fill="white"/>
<path id="Vector_2" d="M27.3433 0.825684H24.3555C20.6597 0.825684 18.8047 2.86477 18.8047 6.88629V31.9075C18.8047 35.9291 20.6597 37.9257 24.3555 37.9257H27.3433C31.0392 37.9257 32.8375 35.9291 32.8375 31.9075V6.90045C32.8375 2.87893 31.0392 0.839844 27.3433 0.839844V0.825684ZM29.3399 32.1907C29.3399 33.7059 28.6744 34.4139 27.3433 34.4139H24.3555C23.0245 34.4139 22.3589 33.7059 22.3589 32.1907V6.5606C22.3589 5.08793 23.0245 4.33744 24.3555 4.33744H27.3433C28.6744 4.33744 29.3399 5.10209 29.3399 6.5606V32.1907Z" fill="white"/>
<path id="Vector_3" d="M45.3844 0.825684H42.3965C38.7007 0.825684 36.8457 2.86477 36.8457 6.88629V31.9075C36.8457 35.9291 38.7007 37.9257 42.3965 37.9257H45.3844C49.0802 37.9257 50.8786 35.9291 50.8786 31.9075V6.90045C50.8786 2.87893 49.0802 0.839844 45.3844 0.839844V0.825684ZM47.381 32.1907C47.381 33.7059 46.7154 34.4139 45.3844 34.4139H42.3965C41.0655 34.4139 40.3999 33.7059 40.3999 32.1907V6.5606C40.3999 5.08793 41.0655 4.33744 42.3965 4.33744H45.3844C46.7154 4.33744 47.381 5.10209 47.381 6.5606V32.1907Z" fill="white"/>
<path id="Vector_4" d="M60.8326 17.3649C60.7335 17.0817 60.691 16.7985 60.691 16.5153C60.691 16.1896 60.7901 15.8498 60.9742 15.4674L68.1818 2.38332C68.3234 2.10011 68.4225 1.85939 68.4225 1.61866C68.4225 1.09473 67.9977 0.811523 67.2897 0.811523H65.8736C65.4913 0.811523 65.1656 1.05225 64.9674 1.37794L60.4219 9.71835C59.898 10.7096 59.4307 11.191 59.0909 11.191C58.7085 11.191 58.4678 10.5255 58.4678 9.19442V1.87355C58.4678 1.25049 58.043 0.825684 57.4199 0.825684H55.9473C55.3384 0.825684 54.8994 1.25049 54.8994 1.87355V36.892C54.8994 37.515 55.3242 37.9398 55.9473 37.9398H57.4199C58.043 37.9398 58.4678 37.515 58.4678 36.892V26.3284C58.4678 24.6291 58.6519 23.7229 59.0342 23.7229C59.4165 23.7229 59.8838 24.4875 60.4502 25.946L64.9107 37.2743C65.0523 37.6566 65.4347 37.9398 65.8595 37.9398H67.5162C68.1818 37.9398 68.5641 37.6141 68.5641 37.0902C68.5641 36.9486 68.5641 36.7079 68.465 36.5238L60.8326 17.3791V17.3649Z" fill="white"/>
<path id="Vector_5" d="M87.7934 9.59091C87.3261 8.68465 87.1278 7.59431 87.1278 6.70221C87.1278 4.80473 88.3173 3.99759 89.4077 3.99759C90.6821 3.99759 91.8715 4.90385 91.8715 6.56061C91.8715 6.63141 91.8857 6.68805 91.8999 6.75885H90.9795C90.7246 6.75885 90.5546 7.01374 90.6538 7.25446L93.061 13.0743C93.2309 13.485 93.8257 13.485 93.9956 13.0743L96.417 7.25446C96.5161 7.0279 96.3462 6.75885 96.0913 6.75885H95.1567C95.1567 6.75885 95.1851 6.63141 95.1851 6.56061C95.1851 3.14798 92.6787 0.5 89.4077 0.5C86.6606 0.5 83.6727 2.4966 83.6727 6.98541C83.6727 8.07576 83.8568 9.44931 84.664 11.1061L91.8715 25.7478C92.7212 27.5462 93.0044 28.7356 93.0044 30.0101C93.0044 33.805 90.8662 34.7538 89.1244 34.7538C86.7172 34.7538 84.7914 33.1536 84.7631 30.5765H85.7118C85.9667 30.5765 86.1366 30.3216 86.0375 30.0809L83.6303 24.261C83.4603 23.8503 82.8656 23.8503 82.6957 24.261L80.2884 30.0809C80.1893 30.3074 80.3592 30.5765 80.6141 30.5765H81.5062C81.5204 35.391 84.8764 38.2655 89.1811 38.2655C93.4858 38.2655 96.5303 35.4193 96.5303 30.0667C96.5303 28.0276 96.063 26.3284 94.8735 23.907L87.8075 9.59091H87.7934Z" fill="white"/>
<path id="Vector_6" d="M114.316 0.825684H112.943C112.277 0.825684 111.951 1.20801 111.895 1.8169L110.705 20.82C110.606 22.6184 110.38 23.5246 110.04 23.5246C109.756 23.5246 109.374 22.675 108.992 20.9616L107.76 15.7506C107.661 15.4249 107.378 15.1842 107.052 15.1842C106.67 15.1842 106.386 15.4249 106.287 15.7506L105.055 20.9616C104.63 22.6609 104.248 23.5246 103.922 23.5246C103.639 23.5246 103.356 22.6184 103.257 20.82L102.124 1.8169C102.082 1.19385 101.699 0.825684 101.076 0.825684H99.7451C99.0796 0.825684 98.6973 1.25049 98.6973 1.91603L100.694 36.9344C100.736 37.5575 101.119 37.9257 101.742 37.9257H103.455C103.979 37.9257 104.404 37.6 104.503 37.076L106.018 29.6419C106.301 28.1692 106.627 27.4187 107.009 27.4187C107.335 27.4187 107.717 28.1834 108.057 29.6419L109.572 37.076C109.671 37.6 110.096 37.9257 110.62 37.9257H112.277C112.886 37.9257 113.268 37.5433 113.325 36.9344L115.364 1.91603C115.364 1.25049 114.982 0.825684 114.316 0.825684Z" fill="white"/>
<path id="Vector_7" d="M127.485 1.73194C127.386 1.16553 126.962 0.825684 126.438 0.825684H123.69C123.167 0.825684 122.742 1.15137 122.643 1.73194L117.432 35.8441C117.29 36.8353 117.29 36.892 117.29 36.9344C117.29 37.5575 117.672 37.9257 118.338 37.9257H119.612C120.136 37.9257 120.561 37.5433 120.66 37.0194L121.609 30.1941C121.708 29.6702 122.133 29.2879 122.657 29.2879H127.4C127.924 29.2879 128.349 29.6136 128.448 30.1941L129.496 37.0194C129.595 37.5858 130.02 37.9257 130.544 37.9257H131.776C132.442 37.9257 132.824 37.5433 132.824 36.9344C132.824 36.892 132.824 36.8353 132.682 35.8441L127.514 1.73194H127.485ZM126.537 25.8044H123.506C122.883 25.8044 122.515 25.4788 122.515 24.8982C122.515 24.6575 122.558 24.1902 122.657 23.6238L123.988 14.4762C124.314 12.3946 124.653 11.3468 125.036 11.3468C125.418 11.3468 125.744 12.3946 126.084 14.4762L127.457 23.6238C127.556 24.1902 127.599 24.6716 127.599 24.8982C127.599 25.5212 127.174 25.8044 126.551 25.8044H126.537Z" fill="white"/>
<path id="Vector_8" d="M142.935 0.825684H137.157C136.548 0.825684 136.109 1.25049 136.109 1.87355V36.892C136.109 37.515 136.534 37.9398 137.157 37.9398H138.63C139.253 37.9398 139.678 37.515 139.678 36.892V22.0095C139.678 21.4006 140.103 20.9616 140.726 20.9616H142.949C146.404 20.9616 150.015 18.257 150.015 13.0035V8.78377C150.015 3.5303 146.418 0.825684 142.949 0.825684H142.935ZM146.39 13.3292C146.39 16.0338 144.875 17.4499 142.935 17.4499H140.711C140.088 17.4499 139.664 17.0251 139.664 16.402V5.3853C139.664 4.76225 140.088 4.33744 140.711 4.33744H142.935C144.875 4.33744 146.39 5.75347 146.39 8.45808V13.3434V13.3292Z" fill="white"/>
</g>
</svg>
