<svg width="120" height="40" viewBox="0 0 120 40" fill="none" xmlns="http://www.w3.org/2000/svg">
<path d="M18.5623 19.3194C18.5623 19.1306 18.6567 18.9135 18.8738 18.6869C19.629 17.8373 20.0727 16.7328 20.0727 15.3357V12.5225C20.0727 8.92578 17.9298 7.2171 15.3715 7.2171H10.6986C10.2832 7.2171 10 7.50975 10 7.91568V8.99186C10 9.84148 11.1328 9.27506 11.1328 10.1247V29.0428C11.1328 29.8925 10 29.326 10 30.1757V31.2518C10 31.6672 10.2832 31.9504 10.6986 31.9504H15.598C18.1563 31.9504 20.2426 30.2795 20.2426 26.645V23.6147C20.2426 22.1326 19.7045 20.8676 18.9115 20.018C18.6944 19.8009 18.5623 19.5743 18.5623 19.3194ZM13.474 10.2568C13.474 9.84148 13.7572 9.55827 14.1726 9.55827H15.3715C16.8536 9.55827 17.7693 10.4456 17.7693 12.3054V15.5906C17.7693 17.3276 16.7875 18.3377 15.5886 18.3377H14.1631C13.7572 18.3377 13.4646 18.0544 13.4646 17.6391V10.2568H13.474ZM17.8637 26.8716C17.8637 28.7313 17.1085 29.6187 15.5886 29.6187H14.1631C13.7572 29.6187 13.4646 29.3355 13.4646 28.9201V21.3113C13.4646 20.8959 13.7478 20.6127 14.1631 20.6127H15.5225C16.9102 20.6127 17.8637 21.5568 17.8637 23.3598V26.8622V26.8716Z" fill="#0C0E12"/>
<path d="M28.2286 7.2171H26.2367C23.7728 7.2171 22.5361 8.57649 22.5361 11.2575V27.9383C22.5361 30.6193 23.7728 31.9504 26.2367 31.9504H28.2286C30.6925 31.9504 31.8914 30.6193 31.8914 27.9383V11.2669C31.8914 8.58593 30.6925 7.22654 28.2286 7.22654V7.2171ZM29.5596 28.1271C29.5596 29.1372 29.1159 29.6092 28.2286 29.6092H26.2367C25.3493 29.6092 24.9056 29.1372 24.9056 28.1271V11.0404C24.9056 10.0586 25.3493 9.55827 26.2367 9.55827H28.2286C29.1159 9.55827 29.5596 10.068 29.5596 11.0404V28.1271Z" fill="#0C0E12"/>
<path d="M40.2559 7.2171H38.264C35.8001 7.2171 34.5635 8.57649 34.5635 11.2575V27.9383C34.5635 30.6193 35.8001 31.9504 38.264 31.9504H40.2559C42.7198 31.9504 43.9187 30.6193 43.9187 27.9383V11.2669C43.9187 8.58593 42.7198 7.22654 40.2559 7.22654V7.2171ZM41.587 28.1271C41.587 29.1372 41.1433 29.6092 40.2559 29.6092H38.264C37.3767 29.6092 36.933 29.1372 36.933 28.1271V11.0404C36.933 10.0586 37.3767 9.55827 38.264 9.55827H40.2559C41.1433 9.55827 41.587 10.068 41.587 11.0404V28.1271Z" fill="#0C0E12"/>
<path d="M50.5551 18.2433C50.489 18.0545 50.4606 17.8657 50.4606 17.6769C50.4606 17.4598 50.5267 17.2332 50.6495 16.9783L55.4545 8.25556C55.5489 8.06676 55.615 7.90628 55.615 7.74579C55.615 7.39651 55.3318 7.2077 54.8598 7.2077H53.9158C53.6609 7.2077 53.4438 7.36819 53.3116 7.58531L50.2813 13.1456C49.932 13.8064 49.6205 14.1274 49.3939 14.1274C49.139 14.1274 48.9785 13.6837 48.9785 12.7963V7.91572C48.9785 7.50035 48.6953 7.21714 48.28 7.21714H47.2982C46.8923 7.21714 46.5996 7.50035 46.5996 7.91572V31.2613C46.5996 31.6767 46.8828 31.9599 47.2982 31.9599H48.28C48.6953 31.9599 48.9785 31.6767 48.9785 31.2613V24.2189C48.9785 23.0861 49.1013 22.4819 49.3561 22.4819C49.611 22.4819 49.9226 22.9917 50.3002 23.9641L53.2738 31.5162C53.3682 31.7711 53.6231 31.9599 53.9063 31.9599H55.0108C55.4545 31.9599 55.7094 31.7428 55.7094 31.3935C55.7094 31.2991 55.7094 31.1386 55.6433 31.0159L50.5551 18.2527V18.2433Z" fill="#0C0E12"/>
<path d="M68.5292 13.0606C68.2177 12.4564 68.0856 11.7295 68.0856 11.1348C68.0856 9.86982 68.8785 9.33173 69.6054 9.33173C70.455 9.33173 71.248 9.9359 71.248 11.0404C71.248 11.0876 71.2575 11.1254 71.2669 11.1726H70.6533C70.4834 11.1726 70.3701 11.3425 70.4362 11.503L72.041 15.3829C72.1543 15.6567 72.5508 15.6567 72.6641 15.3829L74.2783 11.503C74.3444 11.3519 74.2311 11.1726 74.0612 11.1726H73.4381C73.4381 11.1726 73.457 11.0876 73.457 11.0404C73.457 8.76532 71.7861 7 69.6054 7C67.774 7 65.7822 8.33107 65.7822 11.3236C65.7822 12.0505 65.9049 12.9662 66.443 14.0707L71.248 23.8319C71.8144 25.0308 72.0032 25.8238 72.0032 26.6734C72.0032 29.2033 70.5778 29.8358 69.4166 29.8358C67.8118 29.8358 66.5279 28.7691 66.509 27.051H67.1415C67.3115 27.051 67.4247 26.8811 67.3587 26.7206L65.7538 22.8406C65.6406 22.5669 65.2441 22.5669 65.1308 22.8406L63.5259 26.7206C63.4599 26.8716 63.5731 27.051 63.7431 27.051H64.3378C64.3472 30.2606 66.5846 32.177 69.4544 32.177C72.3242 32.177 74.3538 30.2795 74.3538 26.7111C74.3538 25.3517 74.0423 24.2189 73.2493 22.6046L68.5387 13.0606H68.5292Z" fill="#0C0E12"/>
<path d="M86.2104 7.2171H85.2947C84.851 7.2171 84.6339 7.47199 84.5961 7.87792L83.8031 20.5467C83.7371 21.7456 83.586 22.3497 83.3595 22.3497C83.1706 22.3497 82.9158 21.7833 82.6609 20.6411L81.8396 17.1671C81.7735 16.9499 81.5847 16.7895 81.3676 16.7895C81.1127 16.7895 80.9239 16.9499 80.8578 17.1671L80.0365 20.6411C79.7533 21.7739 79.4984 22.3497 79.2813 22.3497C79.0925 22.3497 78.9037 21.7456 78.8376 20.5467L78.0824 7.87792C78.0541 7.46255 77.7992 7.2171 77.3838 7.2171H76.4964C76.0527 7.2171 75.7979 7.50031 75.7979 7.944L77.1289 31.2896C77.1572 31.705 77.4121 31.9504 77.8275 31.9504H78.9698C79.319 31.9504 79.6023 31.7333 79.6683 31.384L80.6784 26.4279C80.8672 25.4461 81.0844 24.9458 81.3392 24.9458C81.5564 24.9458 81.8113 25.4556 82.0378 26.4279L83.0479 31.384C83.114 31.7333 83.3972 31.9504 83.7465 31.9504H84.851C85.2569 31.9504 85.5118 31.6955 85.5496 31.2896L86.909 7.944C86.909 7.50031 86.6541 7.2171 86.2104 7.2171Z" fill="#0C0E12"/>
<path d="M94.9903 7.82127C94.9242 7.44367 94.641 7.2171 94.2917 7.2171H92.4603C92.111 7.2171 91.8278 7.43423 91.7618 7.82127L88.2878 30.5627C88.1934 31.2235 88.1934 31.2613 88.1934 31.2896C88.1934 31.705 88.4482 31.9504 88.8919 31.9504H89.7416C90.0908 31.9504 90.374 31.6955 90.4401 31.3462L91.0726 26.7961C91.1387 26.4468 91.4219 26.1919 91.7712 26.1919H94.9337C95.2829 26.1919 95.5662 26.409 95.6322 26.7961L96.3308 31.3462C96.3969 31.7239 96.6801 31.9504 97.0294 31.9504H97.8507C98.2944 31.9504 98.5493 31.6955 98.5493 31.2896C98.5493 31.2613 98.5493 31.2235 98.4548 30.5627L95.0092 7.82127H94.9903ZM94.3578 23.8696H92.3376C91.9222 23.8696 91.6768 23.6525 91.6768 23.2654C91.6768 23.105 91.7051 22.7934 91.7712 22.4158L92.6586 16.3175C92.8757 14.9297 93.1023 14.2312 93.3571 14.2312C93.612 14.2312 93.8292 14.9297 94.0557 16.3175L94.9714 22.4158C95.0375 22.7934 95.0658 23.1144 95.0658 23.2654C95.0658 23.6808 94.7826 23.8696 94.3672 23.8696H94.3578Z" fill="#0C0E12"/>
<path d="M105.289 7.2171H101.438C101.032 7.2171 100.739 7.50031 100.739 7.91568V31.2613C100.739 31.6767 101.022 31.9599 101.438 31.9599H102.42C102.835 31.9599 103.118 31.6767 103.118 31.2613V21.3396C103.118 20.9337 103.401 20.6411 103.817 20.6411H105.299C107.602 20.6411 110.01 18.838 110.01 15.3357V12.5225C110.01 9.02018 107.612 7.2171 105.299 7.2171H105.289ZM107.593 15.5528C107.593 17.3559 106.583 18.2999 105.289 18.2999H103.807C103.392 18.2999 103.109 18.0167 103.109 17.6013V10.2568C103.109 9.84148 103.392 9.55827 103.807 9.55827H105.289C106.583 9.55827 107.593 10.5023 107.593 12.3054V15.5622V15.5528Z" fill="#0C0E12"/>
</svg>
