<svg width="54" height="54" viewBox="0 0 54 54" fill="none" xmlns="http://www.w3.org/2000/svg">
<rect width="54" height="54" rx="27" fill="#40B250"/>
<path d="M21 14.655C21.3067 14.1029 21.7555 13.6429 22.2998 13.3226C22.8442 13.0023 23.4643 12.8334 24.0958 12.8334H29.9042C30.5357 12.8334 31.1558 13.0023 31.7002 13.3226C32.2445 13.6429 32.6933 14.1029 33 14.655L34.0717 16.5834H37.2083C38.4792 16.5834 39.6979 17.0882 40.5966 17.9868C41.4952 18.8854 42 20.1042 42 21.375V27.0367C40.2591 25.9214 38.2342 25.3302 36.1667 25.3334C35.1825 25.3334 34.2283 25.465 33.3217 25.7109C32.9515 24.6096 32.2999 23.6242 31.4315 22.8523C30.5632 22.0805 29.5082 21.5489 28.3711 21.3104C27.234 21.0719 26.0544 21.1347 24.949 21.4926C23.8437 21.8504 22.8511 22.4909 22.0695 23.3506C21.288 24.2103 20.7447 25.2593 20.4935 26.3936C20.2423 27.528 20.2919 28.7083 20.6374 29.8175C20.9829 30.9268 21.6122 31.9265 22.4631 32.7176C23.314 33.5087 24.3569 34.0637 25.4883 34.3275C25.1437 36.3531 25.3776 38.4348 26.1633 40.3334H16.7917C15.5208 40.3334 14.3021 39.8285 13.4034 38.9299C12.5048 38.0313 12 36.8125 12 35.5417V21.375C12 20.1042 12.5048 18.8854 13.4034 17.9868C14.3021 17.0882 15.5208 16.5834 16.7917 16.5834H19.9292L21 14.655ZM27 23.25C25.8671 23.2485 24.7738 23.6665 23.9309 24.4235C23.0881 25.1806 22.5555 26.2229 22.4359 27.3495C22.3163 28.4761 22.6181 29.607 23.2832 30.5241C23.9483 31.4413 24.9295 32.0795 26.0375 32.3159C27.0138 29.7592 28.9183 27.6646 31.3708 26.45C31.0769 25.5214 30.4947 24.7106 29.7088 24.1352C28.9228 23.5598 27.974 23.2498 27 23.25ZM36.1667 45.3334C41.2292 45.3334 45.3333 41.2292 45.3333 36.1667C45.3333 31.1042 41.2292 27 36.1667 27C31.1042 27 27 31.1042 27 36.1667C27 41.2292 31.1042 45.3334 36.1667 45.3334ZM36.1667 30.3334C36.3877 30.3334 36.5996 30.4212 36.7559 30.5775C36.9122 30.7337 37 30.9457 37 31.1667V35.3334H41.1667C41.3877 35.3334 41.5996 35.4212 41.7559 35.5775C41.9122 35.7337 42 35.9457 42 36.1667C42 36.3877 41.9122 36.5997 41.7559 36.756C41.5996 36.9122 41.3877 37 41.1667 37H37V41.1667C37 41.3877 36.9122 41.5997 36.7559 41.756C36.5996 41.9122 36.3877 42 36.1667 42C35.9457 42 35.7337 41.9122 35.5774 41.756C35.4211 41.5997 35.3333 41.3877 35.3333 41.1667V37H31.1667C30.9457 37 30.7337 36.9122 30.5774 36.756C30.4211 36.5997 30.3333 36.3877 30.3333 36.1667C30.3333 35.9457 30.4211 35.7337 30.5774 35.5775C30.7337 35.4212 30.9457 35.3334 31.1667 35.3334H35.3333V31.1667C35.3333 30.9457 35.4211 30.7337 35.5774 30.5775C35.7337 30.4212 35.9457 30.3334 36.1667 30.3334Z" fill="white"/>
</svg>
