<svg width="32" height="32" viewBox="0 0 32 32" fill="none" xmlns="http://www.w3.org/2000/svg">
<path d="M16 20.8966L20.8966 16L16 11.1034L14.4834 12.62L16.78 14.9167H11.0167V17.0833H16.78L14.4834 19.38L16 20.8966ZM16 29C14.2161 29 12.5333 28.6587 10.9517 27.9762C9.37001 27.2937 7.99056 26.3639 6.81332 25.1867C5.63611 24.0094 4.70625 22.63 4.02375 21.0483C3.34125 19.4667 3 17.7839 3 16C3 14.2017 3.34125 12.5117 4.02375 10.93C4.70625 9.34833 5.63611 7.9725 6.81332 6.8025C7.99056 5.6325 9.37001 4.70625 10.9517 4.02375C12.5333 3.34125 14.2161 3 16 3C17.7983 3 19.4883 3.34125 21.07 4.02375C22.6517 4.70625 24.0275 5.6325 25.1975 6.8025C26.3675 7.9725 27.2937 9.34833 27.9762 10.93C28.6587 12.5117 29 14.2017 29 16C29 17.7839 28.6587 19.4667 27.9762 21.0483C27.2937 22.63 26.3675 24.0094 25.1975 25.1867C24.0275 26.3639 22.6517 27.2937 21.07 27.9762C19.4883 28.6587 17.7983 29 16 29Z" fill="#6E7A9F"/>
</svg>
