<svg width="32" height="32" viewBox="0 0 32 32" fill="none" xmlns="http://www.w3.org/2000/svg">
<mask id="path-1-inside-1_173_8181" fill="white">
<path fill-rule="evenodd" clip-rule="evenodd" d="M9.5 4C7.567 4 6 5.567 6 7.5V24.5C6 26.433 7.567 28 9.5 28H25C25.5523 28 26 27.5523 26 27V11C26 10.4477 25.5523 10 25 10H10C8.89543 10 8 9.10457 8 8C8 6.89543 8.89543 6 10 6H25C25.5523 6 26 5.55228 26 5C26 4.44772 25.5523 4 25 4H9.5Z"/>
</mask>
<path d="M8 7.5C8 6.67157 8.67157 6 9.5 6V2C6.46243 2 4 4.46243 4 7.5H8ZM8 24.5V7.5H4V24.5H8ZM9.5 26C8.67157 26 8 25.3284 8 24.5H4C4 27.5376 6.46243 30 9.5 30V26ZM25 26H9.5V30H25V26ZM24 11V27H28V11H24ZM25 8H10V12H25V8ZM10 8H6C6 10.2091 7.79086 12 10 12V8ZM10 8V4C7.79086 4 6 5.79086 6 8H10ZM10 8H25V4H10V8ZM9.5 6H25V2H9.5V6ZM28 5C28 3.34315 26.6569 2 25 2V6C24.4477 6 24 5.55228 24 5H28ZM28 11C28 9.34315 26.6569 8 25 8V12C24.4477 12 24 11.5523 24 11H28ZM25 8C26.6569 8 28 6.65685 28 5H24C24 4.44772 24.4477 4 25 4V8ZM25 30C26.6569 30 28 28.6569 28 27H24C24 26.4477 24.4477 26 25 26V30Z" fill="#0C0E12" mask="url(#path-1-inside-1_173_8181)"/>
<rect x="9" y="7" width="16" height="2" rx="1" fill="#0C0E12"/>
</svg>
