<svg width="32" height="32" viewBox="0 0 32 32" fill="none" xmlns="http://www.w3.org/2000/svg">
<path fill-rule="evenodd" clip-rule="evenodd" d="M25 16C25 14.3431 23.6569 13 22 13H10C8.34315 13 7 14.3431 7 16V25C7 26.6569 8.34315 28 10 28H14V23C14 21.8954 14.8954 21 16 21C17.1046 21 18 21.8954 18 23V28L22 28C23.6569 28 25 26.6569 25 25V16Z" fill="#0C0E12"/>
<path d="M14.609 4.34633C15.3845 3.59578 16.6155 3.59578 17.391 4.34633L27.1714 13.8129C28.463 15.0631 27.578 17.25 25.7804 17.25H6.21957C4.42199 17.25 3.53697 15.0631 4.8286 13.8129L14.609 4.34633Z" fill="#0C0E12"/>
</svg>
