<svg width="32" height="32" viewBox="0 0 32 32" fill="none" xmlns="http://www.w3.org/2000/svg">
<mask id="path-1-inside-1_173_8179" fill="white">
<path fill-rule="evenodd" clip-rule="evenodd" d="M17.3912 4.34633C16.6158 3.59578 15.3847 3.59578 14.6093 4.34633L4.82887 13.8129C3.53724 15.0631 4.42226 17.25 6.21984 17.25H7.00027V25C7.00027 26.6569 8.34342 28 10.0003 28H14.0003V23C14.0003 21.8954 14.8957 21 16.0003 21C17.1048 21 18.0003 21.8954 18.0003 23V28L22.0003 28C23.6571 28 25.0003 26.6569 25.0003 25V17.25H25.7807C27.5783 17.25 28.4633 15.0631 27.1717 13.8129L17.3912 4.34633Z"/>
</mask>
<path d="M14.6093 4.34633L13.2183 2.90925L13.2183 2.90925L14.6093 4.34633ZM17.3912 4.34633L18.7822 2.90925L18.7822 2.90925L17.3912 4.34633ZM4.82887 13.8129L6.21984 15.25L6.21984 15.25L4.82887 13.8129ZM7.00027 17.25H9.00027V15.25H7.00027V17.25ZM14.0003 28V30H16.0003V28H14.0003ZM18.0003 28H16.0003V30L18.0003 30L18.0003 28ZM22.0003 28L22.0003 30H22.0003V28ZM25.0003 17.25V15.25H23.0003V17.25H25.0003ZM27.1717 13.8129L28.5626 12.3758L28.5626 12.3758L27.1717 13.8129ZM16.0003 5.78342L16.0003 5.78342L18.7822 2.90925C17.2313 1.40814 14.7692 1.40814 13.2183 2.90925L16.0003 5.78342ZM6.21984 15.25L16.0003 5.78342L13.2183 2.90925L3.43791 12.3758L6.21984 15.25ZM6.21984 15.25L6.21984 15.25L3.43791 12.3758C0.854645 14.8762 2.62468 19.25 6.21984 19.25V15.25ZM7.00027 15.25H6.21984V19.25H7.00027V15.25ZM5.00027 17.25V25H9.00027V17.25H5.00027ZM5.00027 25C5.00027 27.7614 7.23885 30 10.0003 30V26C9.44799 26 9.00027 25.5523 9.00027 25H5.00027ZM10.0003 30H14.0003V26H10.0003V30ZM16.0003 28V23H12.0003V28H16.0003ZM16.0003 23V19C13.7911 19 12.0003 20.7909 12.0003 23H16.0003ZM16.0003 23H20.0003C20.0003 20.7909 18.2094 19 16.0003 19V23ZM16.0003 23V28H20.0003V23H16.0003ZM18.0003 30L22.0003 30L22.0003 26L18.0003 26L18.0003 30ZM22.0003 30C24.7617 30 27.0003 27.7614 27.0003 25H23.0003C23.0003 25.5523 22.5526 26 22.0003 26V30ZM27.0003 25V17.25H23.0003V25H27.0003ZM25.7807 15.25H25.0003V19.25H25.7807V15.25ZM25.7807 15.25L25.7807 15.25V19.25C29.3759 19.25 31.1459 14.8762 28.5626 12.3758L25.7807 15.25ZM16.0003 5.78342L25.7807 15.25L28.5626 12.3758L18.7822 2.90925L16.0003 5.78342Z" fill="#0C0E12" mask="url(#path-1-inside-1_173_8179)"/>
</svg>
