<svg width="32" height="32" viewBox="0 0 32 32" fill="none" xmlns="http://www.w3.org/2000/svg">
<mask id="path-1-inside-1_173_8180" fill="white">
<path fill-rule="evenodd" clip-rule="evenodd" d="M16 28C22.6274 28 28 22.6274 28 16C28 9.37258 22.6274 4 16 4C9.37258 4 4 9.37258 4 16C4 18.7189 4.9042 21.2265 6.4283 23.2387L4.99761 26.3385C4.62628 27.1431 5.40742 27.9974 6.2419 27.6993L9.96006 26.3714C11.7341 27.4068 13.7978 28 16 28Z"/>
</mask>
<path d="M6.4283 23.2387L8.24422 24.0768L8.74698 22.9875L8.02259 22.0311L6.4283 23.2387ZM4.99761 26.3385L6.81352 27.1766L6.81353 27.1766L4.99761 26.3385ZM6.2419 27.6993L6.91457 29.5828L6.91457 29.5828L6.2419 27.6993ZM9.96006 26.3714L10.9682 24.6441L10.1641 24.1748L9.28739 24.4879L9.96006 26.3714ZM26 16C26 21.5228 21.5228 26 16 26V30C23.732 30 30 23.732 30 16H26ZM16 6C21.5228 6 26 10.4772 26 16H30C30 8.26801 23.732 2 16 2V6ZM6 16C6 10.4772 10.4772 6 16 6V2C8.26801 2 2 8.26801 2 16H6ZM8.02259 22.0311C6.75259 20.3544 6 18.268 6 16H2C2 19.1697 3.05581 22.0986 4.83401 24.4463L8.02259 22.0311ZM6.81353 27.1766L8.24422 24.0768L4.61238 22.4006L3.18169 25.5004L6.81353 27.1766ZM5.56923 25.8158C6.40372 25.5178 7.18486 26.3721 6.81352 27.1766L3.18169 25.5004C2.0677 27.914 4.41112 30.4769 6.91457 29.5828L5.56923 25.8158ZM9.28739 24.4879L5.56923 25.8158L6.91457 29.5828L10.6327 28.2549L9.28739 24.4879ZM16 26C14.1615 26 12.4445 25.5057 10.9682 24.6441L8.95195 28.0987C11.0236 29.3078 13.434 30 16 30V26Z" fill="#0C0E12" mask="url(#path-1-inside-1_173_8180)"/>
<circle cx="16" cy="16" r="1.5" fill="#0C0E12"/>
<circle cx="10.5" cy="16" r="1.5" fill="#0C0E12"/>
<circle cx="21.5" cy="16" r="1.5" fill="#0C0E12"/>
</svg>
