<svg width="32" height="32" viewBox="0 0 32 32" fill="none" xmlns="http://www.w3.org/2000/svg">
<path fill-rule="evenodd" clip-rule="evenodd" d="M28 16C28 22.6274 22.6274 28 16 28C13.7978 28 11.7341 27.4068 9.96006 26.3714L6.2419 27.6993C5.40742 27.9974 4.62628 27.1431 4.99761 26.3385L6.4283 23.2387C4.9042 21.2265 4 18.7189 4 16C4 9.37258 9.37258 4 16 4C22.6274 4 28 9.37258 28 16ZM17.5 16C17.5 16.8284 16.8284 17.5 16 17.5C15.1716 17.5 14.5 16.8284 14.5 16C14.5 15.1716 15.1716 14.5 16 14.5C16.8284 14.5 17.5 15.1716 17.5 16ZM10.5 17.5C11.3284 17.5 12 16.8284 12 16C12 15.1716 11.3284 14.5 10.5 14.5C9.67157 14.5 9 15.1716 9 16C9 16.8284 9.67157 17.5 10.5 17.5ZM23 16C23 16.8284 22.3284 17.5 21.5 17.5C20.6716 17.5 20 16.8284 20 16C20 15.1716 20.6716 14.5 21.5 14.5C22.3284 14.5 23 15.1716 23 16Z" fill="#0C0E12"/>
</svg>
