<svg width="24" height="24" viewBox="0 0 24 24" fill="none" xmlns="http://www.w3.org/2000/svg">
<path fill-rule="evenodd" clip-rule="evenodd" d="M9 19C9 20.6569 10.3431 22 12 22C13.6569 22 15 20.6569 15 19H9Z" fill="#0C0E12"/>
<path fill-rule="evenodd" clip-rule="evenodd" d="M12 3C8.68629 3 6 5.68629 6 9V14.5C6 14.7761 5.77614 15 5.5 15C4.67157 15 4 15.6716 4 16.5C4 17.3284 4.67157 18 5.5 18H18.5C19.3284 18 20 17.3284 20 16.5C20 15.6716 19.3284 15 18.5 15C18.2239 15 18 14.7761 18 14.5V9C18 5.68629 15.3137 3 12 3Z" fill="#0C0E12"/>
<path d="M18.7292 5.27083C19.2153 5.75694 19.8056 6 20.5 6C21.1944 6 21.7847 5.75694 22.2708 5.27083C22.7569 4.78472 23 4.19444 23 3.5C23 2.80556 22.7569 2.21528 22.2708 1.72917C21.7847 1.24306 21.1944 1 20.5 1C19.8056 1 19.2153 1.24306 18.7292 1.72917C18.2431 2.21528 18 2.80556 18 3.5C18 4.19444 18.2431 4.78472 18.7292 5.27083Z" fill="#FF4438"/>
</svg>
