<svg width="24" height="24" viewBox="0 0 24 24" fill="none" xmlns="http://www.w3.org/2000/svg">
<path fill-rule="evenodd" clip-rule="evenodd" d="M9 19C9 20.6569 10.3431 22 12 22C13.6569 22 15 20.6569 15 19H9Z" fill="#0C0E12"/>
<mask id="path-2-inside-1_173_7285" fill="white">
<path fill-rule="evenodd" clip-rule="evenodd" d="M12 3C8.68629 3 6 5.68629 6 9V14.5C6 14.7761 5.77614 15 5.5 15C4.67157 15 4 15.6716 4 16.5C4 17.3284 4.67157 18 5.5 18H18.5C19.3284 18 20 17.3284 20 16.5C20 15.6716 19.3284 15 18.5 15C18.2239 15 18 14.7761 18 14.5V9C18 5.68629 15.3137 3 12 3Z"/>
</mask>
<path d="M8 9C8 6.79086 9.79086 5 12 5V1C7.58172 1 4 4.58172 4 9H8ZM8 14.5V9H4V14.5H8ZM6 16.5C6 16.7761 5.77614 17 5.5 17V13C3.567 13 2 14.567 2 16.5H6ZM5.5 16C5.77614 16 6 16.2239 6 16.5H2C2 18.433 3.567 20 5.5 20V16ZM18.5 16H5.5V20H18.5V16ZM18 16.5C18 16.2239 18.2239 16 18.5 16V20C20.433 20 22 18.433 22 16.5H18ZM18.5 17C18.2239 17 18 16.7761 18 16.5H22C22 14.567 20.433 13 18.5 13V17ZM16 9V14.5H20V9H16ZM12 5C14.2091 5 16 6.79086 16 9H20C20 4.58172 16.4183 1 12 1V5ZM18.5 13C19.3284 13 20 13.6716 20 14.5H16C16 15.8807 17.1193 17 18.5 17V13ZM4 14.5C4 13.6716 4.67157 13 5.5 13V17C6.88071 17 8 15.8807 8 14.5H4Z" fill="#0C0E12" mask="url(#path-2-inside-1_173_7285)"/>
</svg>
