<svg width="360" height="80" viewBox="0 0 360 80" fill="none" xmlns="http://www.w3.org/2000/svg">
<path d="M117.328 58.5219C118.037 59.2906 120.959 57.95 123.265 56.875C124.993 56.0719 131.909 53.2344 135.346 51.7625C136.275 51.3656 137.625 50.8469 138.596 49.5688C139.459 48.4313 141.746 43.6 137.14 38.7063C132.465 33.7375 127.65 35.1094 125.85 36.3844C124.79 37.1344 123.928 38.825 123.54 39.6844C121.903 43.3156 119.568 49.9688 118.618 52.5844C117.921 54.5125 116.625 57.7594 117.328 58.5219Z" fill="#FFC107"/>
<path d="M123.078 40.7781C123.121 41.3219 123.231 42.2063 123.606 43.9094C123.862 45.0781 124.281 46.3031 124.621 47.1125C125.643 49.5469 127.078 50.5281 128.531 51.3156C131 52.6531 132.678 52.9031 132.678 52.9031L130.665 53.725C130.665 53.725 129.446 53.4719 127.784 52.6531C126.2 51.8719 124.55 50.55 123.343 47.9625C122.821 46.8406 122.518 45.7531 122.343 44.8906C122.128 43.8219 122.093 43.2156 122.093 43.2156L123.078 40.7781ZM120.606 47.1156C120.606 47.1156 120.856 49.1438 122.531 51.7031C124.493 54.6969 127.234 55.1875 127.234 55.1875L125.412 55.9375C125.412 55.9375 123.378 55.3156 121.443 52.675C120.237 51.0281 119.9 49.0594 119.9 49.0594L120.606 47.1156ZM118.871 51.9219C118.871 51.9219 119.328 53.6719 120.328 54.9781C121.518 56.5375 123.034 56.9906 123.034 56.9906L121.637 57.6094C121.637 57.6094 120.578 57.3875 119.418 55.9188C118.537 54.8031 118.287 53.5219 118.287 53.5219L118.871 51.9219Z" fill="#FF8F00"/>
<path opacity="0.44" d="M118.113 56.3656C118.05 56.225 118.05 56.0656 118.116 55.9281L126.075 39.4219L127.385 44.3438L119.01 56.4406C118.785 56.7781 118.279 56.7344 118.113 56.3656Z" fill="#FFFDE7"/>
<path d="M128.016 45.9969C131.734 50.3469 135.969 49.8031 137.378 48.7031C138.791 47.6 139.906 43.8093 136.203 39.5312C132.322 35.05 127.928 36.3281 126.912 37.2968C125.897 38.2656 124.603 42.0062 128.016 45.9969Z" fill="url(#paint0_linear_594_4342)"/>
<path d="M140.788 47.7875C139.431 46.65 138.71 46.8531 137.741 47.2562C136.491 47.775 134.525 48.1594 131.856 47.2562L132.66 45.3219C134.244 45.8562 135.391 45.5969 136.381 45.0125C137.656 44.2625 139.4 43.2344 142.113 45.5125C143.244 46.4625 144.403 47.0937 145.253 46.8062C145.872 46.6 146.2 45.6781 146.366 44.9437C146.381 44.8781 146.406 44.6906 146.425 44.525C146.575 43.3781 146.825 40.9031 148.669 39.6375C150.641 38.2844 152.713 38.2844 152.713 38.2844L153.088 42.0094C152.135 41.8687 151.472 42.0625 150.913 42.3719C148.806 43.5437 150.641 48.0437 147.363 49.5562C144.21 51.0219 141.631 48.4937 140.788 47.7875Z" fill="#03A9F4"/>
<path d="M129.187 43.0375L127.831 41.8219C130.322 39.0406 129.665 36.9969 129.187 35.5094C129.09 35.2094 129 34.925 128.94 34.6531C128.728 33.6906 128.684 32.8531 128.75 32.1219C127.793 30.9313 127.372 29.6844 127.343 29.6C126.762 27.8406 127.2 26.125 128.203 24.5156C130.231 21.25 133.903 21.25 133.903 21.25L135.128 24.5281C134.197 24.4906 131.143 24.5375 130.206 26.0156C129.022 27.8781 129.8 29.0281 129.856 29.1594C130.084 28.8625 130.315 28.625 130.522 28.4406C132.018 27.1125 133.318 26.9219 134.147 26.9969C135.078 27.0812 135.922 27.55 136.525 28.3188C137.184 29.1625 137.456 30.2594 137.247 31.2563C137.043 32.2281 136.397 33.05 135.425 33.5719C133.728 34.4844 132.315 34.3594 131.368 34.0437C131.375 34.0656 131.378 34.0906 131.384 34.1125C131.418 34.2687 131.487 34.4875 131.568 34.7406C132.122 36.4531 133.15 39.1719 129.187 43.0375ZM131.484 31.3094C131.665 31.4406 131.856 31.55 132.053 31.6281C132.709 31.8906 133.425 31.8031 134.237 31.3656C134.715 31.1094 134.772 30.8344 134.79 30.7438C134.847 30.4719 134.753 30.125 134.55 29.8656C134.372 29.6375 134.165 29.5187 133.918 29.4937C133.45 29.4531 132.815 29.75 132.181 30.3156C131.878 30.5875 131.647 30.9219 131.484 31.3094Z" fill="#F44336"/>
<path d="M134.615 43.5469L132.675 43.4937C132.675 43.4937 133.597 38.2875 136.581 37.4125C137.14 37.25 137.753 37.0844 138.369 36.9937C138.734 36.9375 139.312 36.8531 139.597 36.7469C139.662 36.2562 139.456 35.6312 139.225 34.9219C139.044 34.3719 138.856 33.8062 138.756 33.1875C138.562 31.9812 138.884 30.9156 139.662 30.1812C140.612 29.2906 142.147 29.0062 143.878 29.4C144.865 29.625 145.594 30.1094 146.234 30.5344C147.15 31.1437 147.684 31.4531 148.803 30.7C150.156 29.7875 148.387 26.2156 147.447 24.1531L150.956 22.6906C151.428 23.7219 153.706 29.0281 152.203 32.0562C151.697 33.075 150.825 33.75 149.681 34.0031C147.194 34.5594 145.737 33.5906 144.675 32.8844C144.172 32.55 143.731 32.2875 143.253 32.15C139.931 31.2031 144.569 36.0906 142.397 38.2875C141.094 39.6031 137.909 39.95 137.703 40C135.653 40.4937 134.615 43.5469 134.615 43.5469Z" fill="#F48FB1"/>
<path d="M128.747 32.1219C128.687 32.8094 128.659 33.2188 128.837 34.1125C129.697 34.7438 131.568 34.7438 131.568 34.7438C131.487 34.4906 131.415 34.2719 131.384 34.1156C131.378 34.0938 131.375 34.0688 131.368 34.0469C129.465 33.0969 128.747 32.1219 128.747 32.1219Z" fill="#C92B27"/>
<path d="M124.853 35.2L121.622 33.6156L123.231 31.2906L125.766 32.9688L124.853 35.2Z" fill="#FFC107"/>
<path d="M120.091 30.8125C118.441 30.5906 116.76 29.1906 116.575 29.0312L118.197 27.1281C118.688 27.5437 119.728 28.2406 120.425 28.3344L120.091 30.8125Z" fill="#FB8C00"/>
<path d="M123.003 26.6469L120.628 25.8687C120.9 25.0375 120.972 24.1406 120.831 23.275L123.3 22.8781C123.503 24.1344 123.4 25.4375 123.003 26.6469Z" fill="#03A9F4"/>
<path d="M137.835 24.7891L140.277 24.2547L140.982 27.4784L138.54 28.0128L137.835 24.7891Z" fill="#FB8C00"/>
<path d="M143.894 25.5531L142.175 23.7375C143.075 22.8844 143.281 21.7687 143.281 21.7562L145.75 22.1594C145.719 22.3562 145.403 24.125 143.894 25.5531Z" fill="#FFC107"/>
<path d="M144.848 35.1813L147.031 34.4988L147.777 36.885L145.593 37.5675L144.848 35.1813Z" fill="#FB8C00"/>
<path d="M145.484 55.3218L143 55.0281C143.106 54.1437 142.447 53.0593 142.266 52.8187L144.266 51.3187C144.416 51.5156 145.719 53.3187 145.484 55.3218Z" fill="#F44336"/>
<path d="M152.616 52.1531C151.682 52.0125 150.725 51.9563 149.782 51.9906L149.697 49.4906C150.794 49.4531 151.904 49.5156 152.988 49.6813L152.616 52.1531Z" fill="#FB8C00"/>
<path d="M149.254 55.5944L151.01 53.8153L153.427 56.2022L151.671 57.9809L149.254 55.5944Z" fill="#F48FB1"/>
<path d="M144.095 39.7919L145.901 41.8572L143.836 43.6634L142.029 41.5981L144.095 39.7919Z" fill="#F44336"/>
<path d="M179.875 57.125C171.156 57.125 161.75 51.6563 161.75 39.6563C161.75 27.6562 171.156 22.1875 179.875 22.1875C184.719 22.1875 189.188 23.7812 192.5 26.6875C196.094 29.875 198 34.375 198 39.6563C198 44.9375 196.094 49.4063 192.5 52.5938C189.188 55.5 184.687 57.125 179.875 57.125Z" fill="url(#paint1_radial_594_4342)"/>
<path d="M179.875 57.125C171.156 57.125 161.75 51.6563 161.75 39.6563C161.75 27.6562 171.156 22.1875 179.875 22.1875C184.719 22.1875 189.188 23.7812 192.5 26.6875C196.094 29.875 198 34.375 198 39.6563C198 44.9375 196.094 49.4063 192.5 52.5938C189.188 55.5 184.687 57.125 179.875 57.125Z" fill="url(#paint2_linear_594_4342)"/>
<path d="M194.84 29.2719C196.506 31.9594 197.375 35.1594 197.375 38.7187C197.375 44 195.468 48.4687 191.875 51.6562C188.562 54.5625 184.062 56.1875 179.25 56.1875C173.606 56.1875 167.675 53.8906 164.193 49.0187C167.556 54.5375 173.878 57.125 179.875 57.125C184.687 57.125 189.187 55.5 192.5 52.5937C196.093 49.4062 198 44.9375 198 39.6562C198 35.675 196.915 32.1375 194.84 29.2719Z" fill="#EB8F00"/>
<path opacity="0.8" d="M169.281 45.125C172.094 45.125 174.375 42.8444 174.375 40.0312C174.375 37.218 172.094 34.9375 169.281 34.9375C166.468 34.9375 164.188 37.218 164.188 40.0312C164.188 42.8444 166.468 45.125 169.281 45.125Z" fill="url(#paint3_radial_594_4342)"/>
<path opacity="0.8" d="M190.281 41.1875C193.094 41.1875 195.375 38.9069 195.375 36.0938C195.375 33.2805 193.094 31 190.281 31C187.468 31 185.188 33.2805 185.188 36.0938C185.188 38.9069 187.468 41.1875 190.281 41.1875Z" fill="url(#paint4_radial_594_4342)"/>
<path d="M190.281 35.4375C187.875 37.6563 184.687 39.4063 181 40.25C177.312 41.0938 173.687 40.9375 170.562 39.9688C170 39.7813 169.593 40.5313 170.093 40.9063C173.25 43.25 177.468 44.25 181.687 43.25C185.906 42.2813 189.281 39.5625 191.093 36.0625C191.406 35.5313 190.718 35.0313 190.281 35.4375ZM175.156 34.75L175.093 34.6875C175.062 34.6563 175 34.625 174.937 34.5625C174.875 34.5312 174.812 34.4688 174.75 34.4375C174.687 34.375 174.593 34.3125 174.5 34.25C174.406 34.1875 174.312 34.125 174.218 34.0937C174.125 34.0312 174.031 34 173.937 34C173.843 33.9687 173.781 33.9688 173.75 33.9688H173.656H173.718L173.562 34C173.531 34.0313 173.468 34.0625 173.406 34.0937C173.343 34.1562 173.25 34.2188 173.187 34.2813C173.125 34.3438 173.062 34.4375 173 34.5313C172.875 34.7188 172.781 34.875 172.718 35C172.656 35.125 172.593 35.1875 172.593 35.1875L172.531 35.3125C172.218 35.8438 171.531 36.0625 170.968 35.7813C170.593 35.5938 170.375 35.25 170.343 34.875V34.5313C170.375 34.3125 170.406 34 170.531 33.625C170.656 33.25 170.875 32.7813 171.281 32.3438C171.5 32.125 171.75 31.875 172.062 31.7188C172.125 31.6563 172.218 31.625 172.312 31.5937C172.406 31.5625 172.468 31.5 172.593 31.4688L172.75 31.4063C172.812 31.375 172.875 31.375 172.906 31.375L173.062 31.3438L173.156 31.3125H173.281L173.437 31.2812H173.718C173.906 31.2812 174.093 31.2813 174.281 31.3125C174.656 31.375 174.968 31.5 175.25 31.625C175.812 31.9063 176.156 32.25 176.437 32.5312C176.562 32.6875 176.687 32.8125 176.75 32.9375C176.843 33.0625 176.906 33.1875 176.968 33.2813C177.031 33.375 177.031 33.4375 177.062 33.4687C177.062 33.5 177.093 33.5312 177.093 33.5312C177.312 34.0937 177 34.7188 176.375 34.9375C175.937 35.0938 175.468 35 175.156 34.75ZM185.875 32.6563L185.812 32.5938C185.781 32.5625 185.718 32.5313 185.656 32.4688C185.593 32.4375 185.531 32.375 185.468 32.3438C185.406 32.2813 185.312 32.2188 185.218 32.1563C185.125 32.0938 185.031 32.0313 184.937 32C184.843 31.9375 184.75 31.9062 184.656 31.9062C184.593 31.875 184.531 31.875 184.5 31.875H184.406H184.468L184.312 31.9062C184.281 31.9375 184.218 31.9688 184.125 32C184.062 32.0625 184 32.125 183.906 32.1875C183.843 32.25 183.781 32.3437 183.718 32.4375C183.593 32.625 183.5 32.7812 183.437 32.9062C183.375 33.0313 183.312 33.0938 183.312 33.0938L183.25 33.1875C182.937 33.7188 182.25 33.9375 181.687 33.6563C181.312 33.4688 181.093 33.125 181.062 32.75C181.062 32.75 181.062 32.625 181.093 32.4063C181.125 32.1875 181.156 31.875 181.281 31.5C181.406 31.125 181.625 30.6563 182.031 30.2188C182.25 30 182.5 29.75 182.812 29.5938C182.875 29.5625 182.968 29.5 183.062 29.4688C183.156 29.4375 183.218 29.375 183.343 29.3438L183.531 29.2813C183.593 29.25 183.656 29.25 183.687 29.25L183.843 29.2188L183.937 29.1875H184.062L184.218 29.1562H184.5C184.687 29.1562 184.875 29.1563 185.062 29.1875C185.437 29.25 185.75 29.375 186.031 29.5C186.593 29.7813 186.937 30.125 187.218 30.4062C187.343 30.5625 187.468 30.6875 187.531 30.8125C187.625 30.9375 187.687 31.0625 187.75 31.1563C187.812 31.25 187.812 31.3125 187.843 31.3438C187.875 31.375 187.875 31.4063 187.875 31.4063C188.093 31.9688 187.781 32.5938 187.156 32.8125C186.656 33.0313 186.187 32.9375 185.875 32.6563Z" fill="#422B0D"/>
<path d="M173.397 45.8219C173.319 45.0438 173.353 44.6 172.756 44.4594C172.088 44.3031 171.491 44.7813 171.31 45.4656C170.831 47.2969 171.644 48.575 171.644 48.575C170.488 48.3469 169.522 47.2219 169.522 47.2219C168.919 46.5125 168.069 44.75 167.481 44.025C167.125 43.5844 166.541 43.225 165.96 43.5281C164.566 44.2594 166.11 46.7469 166.628 47.4094C167.219 48.1625 165.094 45.7531 164.781 45.2281C164.2 44.2531 163.488 43.9938 162.891 44.5031C162.294 45.0094 162.772 46.275 163.044 46.7563C164.71 49.6781 166.163 50.3938 166.163 50.3938C166.163 50.3938 164.616 49.65 163.297 48.0531C162.053 46.5469 160.872 48.1375 161.7 49.475C161.875 49.7594 162.21 50.4938 163.285 51.4219C164.11 52.1344 163.572 51.7063 163.285 51.4219C162.185 50.3375 161.013 51.4938 161.366 52.4406C161.775 53.5313 163.11 54.5406 164.013 55.2094C165.769 56.5094 167.96 57.55 170.178 57.4781C172.647 57.4 174.469 56.3719 175.016 53.3188C175.269 51.9 174.478 49.725 174.244 49.1688C173.478 47.3688 173.441 46.2625 173.397 45.8219Z" fill="url(#paint5_radial_594_4342)"/>
<path d="M170.919 53.4188C170.588 52.9531 169.653 50.7906 171.397 48.5781L171.903 48.8969C169.928 51.3344 171.31 53.4156 171.55 53.8875C171.55 53.8875 171.235 53.8656 170.919 53.4188Z" fill="#EB8F00"/>
<path d="M174.438 48.9687C173.663 47.4656 173.606 46.6844 173.553 45.8281C173.494 45.2094 173.45 44.4437 172.703 44.2687C172.385 44.1937 171.941 44.2375 171.547 44.6719C170.563 45.7656 171.347 48.3094 171.347 48.3094C169.931 47.6469 169.694 47.0625 168.691 45.5531C168.253 44.8906 167.556 43.6656 166.919 43.3094C166.463 43.0531 165.788 43.2437 165.45 43.7C164.691 44.7187 166.044 46.7844 166.044 46.7844C166.044 46.7844 165.297 45.6969 164.972 45.1281C164.419 44.1625 163.406 43.6281 162.66 44.3C161.441 45.3969 163.81 48.3469 163.81 48.3469C163.81 48.3469 162.719 46.6187 161.631 47.35C161.066 47.7312 160.844 48.725 161.431 49.6812C161.691 50.1156 162.35 50.8844 162.35 50.8844C162.35 50.8844 162.085 50.7156 161.641 50.8594C161.147 51.0219 160.725 51.6344 161.085 52.5906C161.5 53.7094 162.731 54.6781 163.853 55.4875C166.406 57.3312 169.391 57.4437 169.391 57.4437C169.391 57.4437 166.119 56.8156 164.025 54.9094C163.369 54.3125 160.769 52.4969 161.697 51.5531C161.916 51.3281 162.316 51.2156 162.906 51.6844C164.985 53.3406 165.694 52.9562 165.694 52.9562C165.769 52.6687 165.563 52.5469 164.944 52.1812C164.516 51.9281 163.928 51.5812 163.494 51.2094C162.428 50.2875 161.225 48.6844 161.885 47.9719C162.238 47.5906 162.647 47.6719 163.044 48.0812C165.806 50.9 166.456 50.5031 166.456 50.5031C166.456 50.5031 166.541 50.1969 165.669 49.4312C165 48.8469 164.178 48.125 163.163 46.3562C162.894 45.8875 162.756 45.0531 163.15 44.725C163.681 44.275 164.172 44.5719 164.613 45.2312C165.15 46.0344 165.913 47.0219 166.672 47.75C167.591 48.6281 168.085 48.8969 168.116 48.8656C168.335 48.6281 167.394 47.7062 166.975 47.1312C165.5 45.0969 165.522 44.4281 165.828 43.9C166.022 43.5656 166.556 43.4156 167.2 44.225C168.588 45.825 169.288 48.4281 171.9 48.8906C171.9 48.8906 172 48.7344 171.766 47.8875C171.485 47.0031 171.438 46.25 171.581 45.5906C171.741 44.8625 172.325 44.6562 172.647 44.7344C173.078 44.8375 173.028 45.5625 173.028 45.5625C173.028 45.5625 173.053 45.8281 173.066 45.95C173.116 46.475 173.219 47.5687 173.944 49.2562C174.235 49.9312 175.785 52.7062 173.685 56.1781C173.685 56.1781 174.575 56.4062 175.597 56.6437C175.597 56.6437 176 55.2219 175.813 53.0125C175.585 50.2344 174.96 49.9812 174.438 48.9687Z" fill="#EB8F00"/>
<path d="M160.172 52.0844C160.181 51.9969 160.194 51.9219 160.209 51.8563C160.188 51.9281 160.175 52.0031 160.172 52.0844Z" fill="url(#paint6_radial_594_4342)"/>
<path d="M186.319 45.8219C186.397 45.0438 186.365 44.6157 186.959 44.4594C187.597 44.2938 188.212 44.7844 188.406 45.4657C188.853 47.0657 187.997 48.575 187.997 48.575C189.153 48.3469 190.134 47.2375 190.134 47.2375C190.737 46.5282 191.65 44.75 192.234 44.025C192.59 43.5844 193.012 43.3 193.625 43.525C194.89 43.9938 193.569 46.5563 193.05 47.2219C192.459 47.975 192.834 47.8532 193.628 46.9813C194.425 46.1032 194.847 45.6063 195.159 45.0844C195.74 44.1094 196.437 44.1844 196.825 44.5032C197.431 45.0032 196.944 46.275 196.672 46.7563C195.006 49.6782 196.419 48.0532 196.419 48.0532C197.662 46.5469 198.844 48.1375 198.015 49.475C197.84 49.7594 197.506 50.4938 196.431 51.4219C196.144 51.7063 195.606 52.1344 196.431 51.4219C197.531 50.3375 198.703 51.4938 198.35 52.4407C197.94 53.5313 196.606 54.5407 195.703 55.2094C193.947 56.5094 191.756 57.55 189.537 57.4782C187.069 57.4 185.247 56.3719 184.7 53.3188C184.447 51.9 185.237 49.725 185.472 49.1688C186.237 47.3688 186.275 46.2625 186.319 45.8219Z" fill="url(#paint7_radial_594_4342)"/>
<path d="M188.797 53.4188C189.128 52.9531 190.063 50.7906 188.319 48.5781L187.812 48.8969C189.788 51.3344 188.406 53.4156 188.166 53.8875C188.166 53.8875 188.481 53.8656 188.797 53.4188Z" fill="#EB8F00"/>
<path d="M185.278 48.9687C186.053 47.4656 186.11 46.6844 186.163 45.8281C186.222 45.2094 186.266 44.4437 187.013 44.2687C187.332 44.1937 187.775 44.2375 188.169 44.6719C189.153 45.7656 188.369 48.3094 188.369 48.3094C189.785 47.6469 190.022 47.0625 191.025 45.5531C191.463 44.8906 192.16 43.6656 192.797 43.3094C193.253 43.0531 193.928 43.2437 194.266 43.7C195.025 44.7187 193.672 46.7844 193.672 46.7844C193.672 46.7844 194.419 45.6969 194.744 45.1281C195.297 44.1625 196.31 43.6281 197.057 44.3C198.275 45.3969 195.907 48.3469 195.907 48.3469C195.907 48.3469 196.997 46.6187 198.085 47.35C198.65 47.7312 198.872 48.725 198.285 49.6812C198.025 50.1156 197.366 50.8844 197.366 50.8844C197.366 50.8844 197.632 50.7156 198.075 50.8594C198.569 51.0219 198.991 51.6344 198.632 52.5906C198.216 53.7094 196.985 54.6781 195.863 55.4875C193.31 57.3312 190.325 57.4437 190.325 57.4437C190.325 57.4437 193.597 56.8156 195.691 54.9094C196.347 54.3125 198.947 52.4969 198.019 51.5531C197.8 51.3281 197.4 51.2156 196.81 51.6844C194.732 53.3406 194.022 52.9562 194.022 52.9562C193.947 52.6687 194.153 52.5469 194.772 52.1812C195.2 51.9281 195.788 51.5812 196.222 51.2094C197.288 50.2875 198.491 48.6844 197.832 47.9719C197.478 47.5906 197.069 47.6719 196.672 48.0812C193.91 50.9 193.26 50.5031 193.26 50.5031C193.26 50.5031 193.175 50.1969 194.047 49.4312C194.716 48.8469 195.538 48.125 196.553 46.3562C196.822 45.8875 196.96 45.0531 196.566 44.725C196.035 44.275 195.544 44.5719 195.103 45.2312C194.566 46.0344 193.803 47.0219 193.044 47.75C192.125 48.6281 191.632 48.8969 191.6 48.8656C191.382 48.6281 192.322 47.7062 192.741 47.1312C194.216 45.0969 194.194 44.4281 193.888 43.9C193.694 43.5656 193.16 43.4156 192.516 44.225C191.122 45.8312 190.422 48.4344 187.813 48.8969C187.813 48.8969 187.713 48.7406 187.947 47.8937C188.228 47.0094 188.275 46.2562 188.132 45.5969C187.972 44.8687 187.388 44.6625 187.066 44.7406C186.635 44.8437 186.685 45.5687 186.685 45.5687C186.685 45.5687 186.66 45.8344 186.647 45.9562C186.597 46.4812 186.494 47.575 185.769 49.2625C185.478 49.9375 183.925 52.7406 186.028 56.1844C186.028 56.1844 185.138 56.4125 184.116 56.65C184.116 56.65 183.713 55.2281 183.9 53.0187C184.132 50.2344 184.757 49.9812 185.278 48.9687Z" fill="#EB8F00"/>
<path d="M199.543 52.0844C199.534 51.9969 199.521 51.9219 199.506 51.8563C199.528 51.9281 199.54 52.0031 199.543 52.0844Z" fill="url(#paint8_radial_594_4342)"/>
<path d="M207.328 58.5219C208.037 59.2906 210.959 57.95 213.265 56.875C214.993 56.0719 221.909 53.2344 225.346 51.7625C226.275 51.3656 227.625 50.8469 228.596 49.5688C229.459 48.4313 231.746 43.6 227.14 38.7063C222.465 33.7375 217.65 35.1094 215.85 36.3844C214.79 37.1344 213.928 38.825 213.54 39.6844C211.903 43.3156 209.568 49.9688 208.618 52.5844C207.921 54.5125 206.625 57.7594 207.328 58.5219Z" fill="#FFC107"/>
<path d="M213.078 40.7781C213.121 41.3219 213.231 42.2063 213.606 43.9094C213.862 45.0781 214.281 46.3031 214.621 47.1125C215.643 49.5469 217.078 50.5281 218.531 51.3156C221 52.6531 222.678 52.9031 222.678 52.9031L220.665 53.725C220.665 53.725 219.446 53.4719 217.784 52.6531C216.2 51.8719 214.55 50.55 213.343 47.9625C212.821 46.8406 212.518 45.7531 212.343 44.8906C212.128 43.8219 212.093 43.2156 212.093 43.2156L213.078 40.7781ZM210.606 47.1156C210.606 47.1156 210.856 49.1438 212.531 51.7031C214.493 54.6969 217.234 55.1875 217.234 55.1875L215.412 55.9375C215.412 55.9375 213.378 55.3156 211.443 52.675C210.237 51.0281 209.9 49.0594 209.9 49.0594L210.606 47.1156ZM208.871 51.9219C208.871 51.9219 209.328 53.6719 210.328 54.9781C211.518 56.5375 213.034 56.9906 213.034 56.9906L211.637 57.6094C211.637 57.6094 210.578 57.3875 209.418 55.9188C208.537 54.8031 208.287 53.5219 208.287 53.5219L208.871 51.9219Z" fill="#FF8F00"/>
<path opacity="0.44" d="M208.113 56.3656C208.05 56.225 208.05 56.0656 208.116 55.9281L216.075 39.4219L217.385 44.3438L209.01 56.4406C208.785 56.7781 208.279 56.7344 208.113 56.3656Z" fill="#FFFDE7"/>
<path d="M218.016 45.9969C221.734 50.3469 225.969 49.8031 227.378 48.7031C228.791 47.6 229.906 43.8093 226.203 39.5312C222.322 35.05 217.928 36.3281 216.912 37.2968C215.897 38.2656 214.603 42.0062 218.016 45.9969Z" fill="url(#paint9_linear_594_4342)"/>
<path d="M230.788 47.7875C229.431 46.65 228.71 46.8531 227.741 47.2562C226.491 47.775 224.525 48.1594 221.856 47.2562L222.66 45.3219C224.244 45.8562 225.391 45.5969 226.381 45.0125C227.656 44.2625 229.4 43.2344 232.113 45.5125C233.244 46.4625 234.403 47.0937 235.253 46.8062C235.872 46.6 236.2 45.6781 236.366 44.9437C236.381 44.8781 236.406 44.6906 236.425 44.525C236.575 43.3781 236.825 40.9031 238.669 39.6375C240.641 38.2844 242.713 38.2844 242.713 38.2844L243.088 42.0094C242.135 41.8687 241.472 42.0625 240.913 42.3719C238.806 43.5437 240.641 48.0437 237.363 49.5562C234.21 51.0219 231.631 48.4937 230.788 47.7875Z" fill="#03A9F4"/>
<path d="M219.187 43.0375L217.831 41.8219C220.322 39.0406 219.665 36.9969 219.187 35.5094C219.09 35.2094 219 34.925 218.94 34.6531C218.728 33.6906 218.684 32.8531 218.75 32.1219C217.793 30.9313 217.372 29.6844 217.343 29.6C216.762 27.8406 217.2 26.125 218.203 24.5156C220.231 21.25 223.903 21.25 223.903 21.25L225.128 24.5281C224.197 24.4906 221.143 24.5375 220.206 26.0156C219.022 27.8781 219.8 29.0281 219.856 29.1594C220.084 28.8625 220.315 28.625 220.522 28.4406C222.018 27.1125 223.318 26.9219 224.147 26.9969C225.078 27.0812 225.922 27.55 226.525 28.3188C227.184 29.1625 227.456 30.2594 227.247 31.2563C227.043 32.2281 226.397 33.05 225.425 33.5719C223.728 34.4844 222.315 34.3594 221.368 34.0437C221.375 34.0656 221.378 34.0906 221.384 34.1125C221.418 34.2687 221.487 34.4875 221.568 34.7406C222.122 36.4531 223.15 39.1719 219.187 43.0375ZM221.484 31.3094C221.665 31.4406 221.856 31.55 222.053 31.6281C222.709 31.8906 223.425 31.8031 224.237 31.3656C224.715 31.1094 224.772 30.8344 224.79 30.7438C224.847 30.4719 224.753 30.125 224.55 29.8656C224.372 29.6375 224.165 29.5187 223.918 29.4937C223.45 29.4531 222.815 29.75 222.181 30.3156C221.878 30.5875 221.647 30.9219 221.484 31.3094Z" fill="#F44336"/>
<path d="M224.615 43.5469L222.675 43.4937C222.675 43.4937 223.597 38.2875 226.581 37.4125C227.14 37.25 227.753 37.0844 228.369 36.9937C228.734 36.9375 229.312 36.8531 229.597 36.7469C229.662 36.2562 229.456 35.6312 229.225 34.9219C229.044 34.3719 228.856 33.8062 228.756 33.1875C228.562 31.9812 228.884 30.9156 229.662 30.1812C230.612 29.2906 232.147 29.0062 233.878 29.4C234.865 29.625 235.594 30.1094 236.234 30.5344C237.15 31.1437 237.684 31.4531 238.803 30.7C240.156 29.7875 238.387 26.2156 237.447 24.1531L240.956 22.6906C241.428 23.7219 243.706 29.0281 242.203 32.0562C241.697 33.075 240.825 33.75 239.681 34.0031C237.194 34.5594 235.737 33.5906 234.675 32.8844C234.172 32.55 233.731 32.2875 233.253 32.15C229.931 31.2031 234.569 36.0906 232.397 38.2875C231.094 39.6031 227.909 39.95 227.703 40C225.653 40.4937 224.615 43.5469 224.615 43.5469Z" fill="#F48FB1"/>
<path d="M218.747 32.1219C218.687 32.8094 218.659 33.2188 218.837 34.1125C219.697 34.7438 221.568 34.7438 221.568 34.7438C221.487 34.4906 221.415 34.2719 221.384 34.1156C221.378 34.0938 221.375 34.0688 221.368 34.0469C219.465 33.0969 218.747 32.1219 218.747 32.1219Z" fill="#C92B27"/>
<path d="M214.853 35.2L211.622 33.6156L213.231 31.2906L215.766 32.9688L214.853 35.2Z" fill="#FFC107"/>
<path d="M210.091 30.8125C208.441 30.5906 206.76 29.1906 206.575 29.0312L208.197 27.1281C208.688 27.5437 209.728 28.2406 210.425 28.3344L210.091 30.8125Z" fill="#FB8C00"/>
<path d="M213.003 26.6469L210.628 25.8687C210.9 25.0375 210.972 24.1406 210.831 23.275L213.3 22.8781C213.503 24.1344 213.4 25.4375 213.003 26.6469Z" fill="#03A9F4"/>
<path d="M227.835 24.7891L230.277 24.2547L230.982 27.4784L228.54 28.0128L227.835 24.7891Z" fill="#FB8C00"/>
<path d="M233.894 25.5531L232.175 23.7375C233.075 22.8844 233.281 21.7687 233.281 21.7562L235.75 22.1594C235.719 22.3562 235.403 24.125 233.894 25.5531Z" fill="#FFC107"/>
<path d="M234.848 35.1813L237.031 34.4988L237.777 36.885L235.593 37.5675L234.848 35.1813Z" fill="#FB8C00"/>
<path d="M235.484 55.3218L233 55.0281C233.106 54.1437 232.447 53.0593 232.266 52.8187L234.266 51.3187C234.416 51.5156 235.719 53.3187 235.484 55.3218Z" fill="#F44336"/>
<path d="M242.616 52.1531C241.682 52.0125 240.725 51.9563 239.782 51.9906L239.697 49.4906C240.794 49.4531 241.904 49.5156 242.988 49.6813L242.616 52.1531Z" fill="#FB8C00"/>
<path d="M239.254 55.5944L241.01 53.8153L243.427 56.2022L241.671 57.9809L239.254 55.5944Z" fill="#F48FB1"/>
<path d="M234.095 39.7919L235.901 41.8572L233.836 43.6634L232.029 41.5981L234.095 39.7919Z" fill="#F44336"/>
<defs>
<linearGradient id="paint0_linear_594_4342" x1="138.245" y1="39.3247" x2="128.943" y2="44.9059" gradientUnits="userSpaceOnUse">
<stop offset="0.024" stop-color="#8F4700"/>
<stop offset="1" stop-color="#703E2D"/>
</linearGradient>
<radialGradient id="paint1_radial_594_4342" cx="0" cy="0" r="1" gradientUnits="userSpaceOnUse" gradientTransform="translate(179.875 39.6562) scale(17.8)">
<stop offset="0.5" stop-color="#FDE030"/>
<stop offset="0.919" stop-color="#F7C02B"/>
<stop offset="1" stop-color="#F4A223"/>
</radialGradient>
<linearGradient id="paint2_linear_594_4342" x1="179.875" y1="57.125" x2="179.875" y2="22.1875" gradientUnits="userSpaceOnUse">
<stop offset="0.158" stop-color="#F4A223"/>
<stop offset="0.333" stop-color="#F7C02B"/>
<stop offset="0.807" stop-color="#FDE030" stop-opacity="0"/>
</linearGradient>
<radialGradient id="paint3_radial_594_4342" cx="0" cy="0" r="1" gradientUnits="userSpaceOnUse" gradientTransform="translate(169.27 40.0334) rotate(-10.6121) scale(5.54293 5.26588)">
<stop stop-color="#ED7770"/>
<stop offset="0.9" stop-color="#ED7770" stop-opacity="0"/>
</radialGradient>
<radialGradient id="paint4_radial_594_4342" cx="0" cy="0" r="1" gradientUnits="userSpaceOnUse" gradientTransform="translate(190.283 36.1046) rotate(-10.6121) scale(5.54231 5.2653)">
<stop stop-color="#ED7770"/>
<stop offset="0.9" stop-color="#ED7770" stop-opacity="0"/>
</radialGradient>
<radialGradient id="paint5_radial_594_4342" cx="0" cy="0" r="1" gradientUnits="userSpaceOnUse" gradientTransform="translate(170.115 49.3975) scale(12.0353)">
<stop offset="0.33" stop-color="#FFF176"/>
<stop offset="1" stop-color="#FFC400"/>
</radialGradient>
<radialGradient id="paint6_radial_594_4342" cx="0" cy="0" r="1" gradientUnits="userSpaceOnUse" gradientTransform="translate(169.121 49.3332) scale(12.1575 12.1574)">
<stop offset="0.33" stop-color="#FFF176"/>
<stop offset="1" stop-color="#FFC400"/>
</radialGradient>
<radialGradient id="paint7_radial_594_4342" cx="0" cy="0" r="1" gradientUnits="userSpaceOnUse" gradientTransform="translate(189.601 49.4141) rotate(180) scale(12.0172)">
<stop offset="0.33" stop-color="#FFF176"/>
<stop offset="1" stop-color="#FFC400"/>
</radialGradient>
<radialGradient id="paint8_radial_594_4342" cx="0" cy="0" r="1" gradientUnits="userSpaceOnUse" gradientTransform="translate(190.594 49.3332) rotate(180) scale(12.1578 12.1574)">
<stop offset="0.33" stop-color="#FFF176"/>
<stop offset="1" stop-color="#FFC400"/>
</radialGradient>
<linearGradient id="paint9_linear_594_4342" x1="228.245" y1="39.3247" x2="218.943" y2="44.9059" gradientUnits="userSpaceOnUse">
<stop offset="0.024" stop-color="#8F4700"/>
<stop offset="1" stop-color="#703E2D"/>
</linearGradient>
</defs>
</svg>
